<?xml version="1.0" encoding="UTF-8" standalone="no"?>
<svg width="348px" height="4px" viewBox="0 0 348 4" version="1.1" xmlns="http://www.w3.org/2000/svg" xmlns:xlink="http://www.w3.org/1999/xlink" xmlns:sketch="http://www.bohemiancoding.com/sketch/ns">
    <!-- Generator: Sketch 3.3.3 (12081) - http://www.bohemiancoding.com/sketch -->
    <title>Triangle 1 Copy 35</title>
    <desc>Created with Sketch.</desc>
    <defs></defs>
    <g id="Design" stroke="none" stroke-width="1" fill="none" fill-rule="evenodd" sketch:type="MSPage">
        <g id="Mobile---Home" sketch:type="MSArtboardGroup" transform="translate(-14.000000, -581.000000)" fill="#FAFAFA">
            <g id="post" sketch:type="MSLayerGroup" transform="translate(9.000000, 428.000000)">
                <g id="header" sketch:type="MSShapeGroup">
                    <g id="border" transform="translate(5.000000, 153.000000)">
                        <path d="M74,0 L76,4 L72,4 L74,0 Z M78,0 L80,4 L76,4 L78,0 Z M82,0 L84,4 L80,4 L82,0 Z M86,0 L88,4 L84,4 L86,0 Z M90,0 L92,4 L88,4 L90,0 Z M94,0 L96,4 L92,4 L94,0 Z M98,0 L100,4 L96,4 L98,0 Z M102,0 L104,4 L100,4 L102,0 Z M106,0 L108,4 L104,4 L106,0 Z M110,0 L112,4 L108,4 L110,0 Z M114,0 L116,4 L112,4 L114,0 Z M118,0 L120,4 L116,4 L118,0 Z M122,0 L124,4 L120,4 L122,0 Z M126,0 L128,4 L124,4 L126,0 Z M130,0 L132,4 L128,4 L130,0 Z M134,0 L136,4 L132,4 L134,0 Z M138,0 L140,4 L136,4 L138,0 Z M142,0 L144,4 L140,4 L142,0 Z M146,0 L148,4 L144,4 L146,0 Z M150,0 L152,4 L148,4 L150,0 Z M154,0 L156,4 L152,4 L154,0 Z M158,0 L160,4 L156,4 L158,0 Z M162,0 L164,4 L160,4 L162,0 Z M166,0 L168,4 L164,4 L166,0 Z M170,0 L172,4 L168,4 L170,0 Z M174,0 L176,4 L172,4 L174,0 Z M178,0 L180,4 L176,4 L178,0 Z M182,0 L184,4 L180,4 L182,0 Z M186,0 L188,4 L184,4 L186,0 Z M190,0 L192,4 L188,4 L190,0 Z M194,0 L196,4 L192,4 L194,0 Z M198,0 L200,4 L196,4 L198,0 Z M202,0 L204,4 L200,4 L202,0 Z M206,0 L208,4 L204,4 L206,0 Z M210,0 L212,4 L208,4 L210,0 Z M214,0 L216,4 L212,4 L214,0 Z M218,0 L220,4 L216,4 L218,0 Z M222,0 L224,4 L220,4 L222,0 Z M226,0 L228,4 L224,4 L226,0 Z M230,0 L232,4 L228,4 L230,0 Z M234,0 L236,4 L232,4 L234,0 Z M238,0 L240,4 L236,4 L238,0 Z M242,0 L244,4 L240,4 L242,0 Z M246,0 L248,4 L244,4 L246,0 Z M250,0 L252,4 L248,4 L250,0 Z M254,0 L256,4 L252,4 L254,0 Z M258,0 L260,4 L256,4 L258,0 Z M262,0 L264,4 L260,4 L262,0 Z M266,0 L268,4 L264,4 L266,0 Z M270,0 L272,4 L268,4 L270,0 Z M274,0 L276,4 L272,4 L274,0 Z M278,0 L280,4 L276,4 L278,0 Z M282,0 L284,4 L280,4 L282,0 Z M286,0 L288,4 L284,4 L286,0 Z M290,0 L292,4 L288,4 L290,0 Z M294,0 L296,4 L292,4 L294,0 Z M298,0 L300,4 L296,4 L298,0 Z M302,0 L304,4 L300,4 L302,0 Z M306,0 L308,4 L304,4 L306,0 Z M310,0 L312,4 L308,4 L310,0 Z M314,0 L316,4 L312,4 L314,0 Z M318,0 L320,4 L316,4 L318,0 Z M322,0 L324,4 L320,4 L322,0 Z M326,0 L328,4 L324,4 L326,0 Z M330,0 L332,4 L328,4 L330,0 Z M334,0 L336,4 L332,4 L334,0 Z M338,0 L340,4 L336,4 L338,0 Z M342,0 L344,4 L340,4 L342,0 Z M346,0 L348,4 L344,4 L346,0 Z M2,0 L4,4 L0,4 L2,0 Z M6,0 L8,4 L4,4 L6,0 Z M10,0 L12,4 L8,4 L10,0 Z M14,0 L16,4 L12,4 L14,0 Z M18,0 L20,4 L16,4 L18,0 Z M22,0 L24,4 L20,4 L22,0 Z M26,0 L28,4 L24,4 L26,0 Z M30,0 L32,4 L28,4 L30,0 Z M34,0 L36,4 L32,4 L34,0 Z M38,0 L40,4 L36,4 L38,0 Z M42,0 L44,4 L40,4 L42,0 Z M46,0 L48,4 L44,4 L46,0 Z M50,0 L52,4 L48,4 L50,0 Z M54,0 L56,4 L52,4 L54,0 Z M58,0 L60,4 L56,4 L58,0 Z M62,0 L64,4 L60,4 L62,0 Z M66,0 L68,4 L64,4 L66,0 Z M70,0 L72,4 L68,4 L70,0 Z" id="Triangle-1-Copy-35"></path>
                    </g>
                </g>
            </g>
        </g>
    </g>
</svg>