<?xml version="1.0" encoding="UTF-8" standalone="no"?>
<svg width="35px" height="35px" viewBox="0 0 35 35" version="1.1" xmlns="http://www.w3.org/2000/svg" xmlns:xlink="http://www.w3.org/1999/xlink" xmlns:sketch="http://www.bohemiancoding.com/sketch/ns">
    <!-- Generator: Sketch 3.3.3 (12081) - http://www.bohemiancoding.com/sketch -->
    <title>Icons/Pinterest + Oval 155</title>
    <desc>Created with Sketch.</desc>
    <defs></defs>
    <g id="Design" stroke="none" stroke-width="1" fill="none" fill-rule="evenodd" sketch:type="MSPage">
        <g id="Mobile---Home" sketch:type="MSArtboardGroup" transform="translate(-313.000000, -348.000000)">
            <g id="social" sketch:type="MSLayerGroup" transform="translate(314.000000, 302.000000)">
                <g id="Icons/Pinterest-+-Oval-155" transform="translate(0.000000, 47.000000)" sketch:type="MSShapeGroup">
                    <path d="M15.3654475,20.2141301 C14.9667788,22.2074734 14.5221166,23.8251239 14.0314475,25.0671301 C13.5407783,26.3091363 12.8047857,27.2981264 11.8234475,28.0341301 C11.731447,26.8994577 11.6777809,25.9794669 11.6624475,25.2741301 C11.6471141,24.5687932 11.7314465,23.7254683 11.9154475,22.7441301 C12.0994484,21.7627918 12.2681134,20.9654665 12.4214475,20.3521301 C12.5747816,19.7387937 12.7741129,18.9798013 13.0194475,18.0751301 C13.264782,17.1704589 13.4487802,16.4114665 13.5714475,15.7981301 C13.2034456,15.0007928 13.0577804,14.1114683 13.1344475,13.1301301 C13.2111145,12.1487918 13.5791108,11.3361333 14.2384475,10.6921301 C14.8977841,10.0481269 15.6567765,9.89479505 16.5154475,10.2321301 C17.1287839,10.4774646 17.4661138,10.9297934 17.5274475,11.5891301 C17.5887811,12.2484667 17.4891154,12.9767928 17.2284475,13.7741301 C16.9677795,14.5714674 16.7224486,15.3611262 16.4924475,16.1431301 C16.2624463,16.925134 16.23178,17.6151271 16.4004475,18.2131301 C16.569115,18.8111331 17.0521101,19.186796 17.8494475,19.3401301 C18.8921193,19.5547978 19.8197767,19.2634674 20.6324475,18.4661301 C21.4451182,17.6687928 22.0124459,16.6644695 22.3344475,15.4531301 C22.6564491,14.2417907 22.7407816,12.9921365 22.5874475,11.7041301 C22.4341134,10.4161236 22.0201175,9.43480011 21.3454475,8.76013007 C20.394776,7.77879183 19.237121,7.24213053 17.8724475,7.15013007 C16.507774,7.05812961 15.2581198,7.31112708 14.1234475,7.90913007 C12.9887751,8.50713306 12.0687843,9.40412409 11.3634475,10.6001301 C10.6581106,11.7961361 10.4127797,13.0994564 10.6274475,14.5101301 C10.6887811,14.8474651 10.8574461,15.2461278 11.1334475,15.7061301 C11.4094488,16.1661324 11.5704472,16.5264621 11.6164475,16.7871301 C11.6624477,17.047798 11.5321157,17.5614596 11.2254475,18.3281301 C8.98676961,17.8067941 7.91344701,16.0434784 8.00544747,13.0381301 C8.06678111,10.9221195 8.87177306,9.12813743 10.4204475,7.65613007 C11.9691219,6.18412271 13.7554373,5.32546463 15.7794475,5.08013007 C18.2941267,4.80412869 20.5174378,5.24112432 22.4494475,6.39113007 C24.3814571,7.54113582 25.4854461,9.22011903 25.7614475,11.4281301 C26.1601161,14.1268102 25.6541212,16.5571193 24.2434475,18.7191301 C22.8327737,20.8811409 20.9007931,21.870131 18.4474475,21.6861301 C18.1101124,21.6554633 17.7881157,21.5864639 17.4814475,21.4791301 C17.1747793,21.3717962 16.9447816,21.2721305 16.7914475,21.1801301 C16.6381134,21.0881296 16.4004491,20.9271312 16.0784475,20.6971301 C15.7564459,20.4671289 15.5187816,20.3061305 15.3654475,20.2141301 L15.3654475,20.2141301 Z" id="Icons/Pinterest" fill="#CF919A"></path>
                    <circle id="Oval-155" stroke="#AB803C" cx="16.3227228" cy="16.3227228" r="16.3227228"></circle>
                </g>
            </g>
        </g>
    </g>
</svg>