<?xml version="1.0" encoding="UTF-8" standalone="no"?>
<svg width="55px" height="50px" viewBox="0 0 55 50" version="1.1" xmlns="http://www.w3.org/2000/svg" xmlns:xlink="http://www.w3.org/1999/xlink" xmlns:sketch="http://www.bohemiancoding.com/sketch/ns">
    <!-- Generator: Sketch 3.3.3 (12081) - http://www.bohemiancoding.com/sketch -->
    <title>detail</title>
    <desc>Created with Sketch.</desc>
    <defs></defs>
    <g id="Design" stroke="none" stroke-width="1" fill="none" fill-rule="evenodd" sketch:type="MSPage">
        <g id="Mobile---Home" sketch:type="MSArtboardGroup" transform="translate(-299.000000, -1477.000000)" fill="#000000">
            <g id="post" sketch:type="MSLayerGroup" transform="translate(9.000000, 428.000000)">
                <g id="footer" transform="translate(23.000000, 1033.000000)" sketch:type="MSShapeGroup">
                    <g id="detail" transform="translate(290.540988, 47.986832) rotate(-315.000000) translate(-290.540988, -47.986832) translate(257.040988, 26.486832)">
                        <path d="M42.4508702,12.6669474 C36.2651647,13.9730526 32.5724134,19.3107368 32.5724134,26.9448421 C32.5724134,27.1776842 32.7603943,27.3658947 32.9929522,27.3658947 C33.2255102,27.3658947 33.413491,27.1776842 33.413491,26.9448421 C33.413491,19.6307368 36.7706524,14.7271579 42.6241322,13.4909474 C47.5566319,12.4496842 52.4163785,15.6202105 53.4572121,20.5587368 C53.8554623,22.4509474 53.49464,24.3848421 52.4399287,26.0054737 C51.3852173,27.6256842 49.7644607,28.7368421 47.8754004,29.136 C44.8,29.7848421 41.7704384,27.8084211 41.121547,24.7296842 C40.6122745,22.3115789 42.1623806,19.9296842 44.5766939,19.4197895 C46.463231,19.0214737 48.3220126,20.2345263 48.7202628,22.1233684 C49.0285178,23.5886316 48.0890341,25.0324211 46.6259795,25.3414737 C46.0801202,25.4568421 45.5233268,25.3515789 45.0561081,25.0475789 C44.5893101,24.7427368 44.2688595,24.2745263 44.1536318,23.7288421 C44.0661598,23.3141053 44.1448005,22.8892632 44.3760969,22.5351579 C44.6073932,22.1797895 44.9631691,21.936 45.3773998,21.8484211 C46.0161983,21.7136842 46.6453243,22.1242105 46.7803173,22.7637895 C46.8282587,22.9915789 47.0515648,23.1368421 47.2790763,23.0888421 C47.5061673,23.0408421 47.6516737,22.8172632 47.6033117,22.5898947 C47.3724359,21.496 46.2962771,20.7936842 45.2041378,21.0244211 C44.5695447,21.1583158 44.0253675,21.5317895 43.6712738,22.0753684 C43.3176007,22.6189474 43.1964855,23.2677895 43.3302168,23.9023158 C43.4912832,24.6682105 43.9408392,25.3254737 44.5960387,25.7532632 C45.2516587,26.1810526 46.0338609,26.3271579 46.798821,26.1654737 C48.716478,25.7604211 49.9469746,23.8694737 49.5428368,21.9498947 C49.0491242,19.6063158 46.7437304,18.1018947 44.4030114,18.5957895 C41.5349366,19.2012632 39.6933972,22.0311579 40.298132,24.9031579 C41.0429062,28.4362105 44.5190801,30.7044211 48.0482418,29.9595789 C50.157244,29.5141053 51.9668225,28.2732632 53.1439106,26.4648421 C54.3214193,24.6564211 54.724716,22.4968421 54.279786,20.3848421 C53.1439106,14.992 47.8371313,11.5296842 42.4508702,12.6669474 L42.4508702,12.6669474 Z" id="Shape"></path>
                        <path d="M10.6787421,20.8585263 C10.3364235,22.9898947 10.8427523,25.1263158 12.1060509,26.8762105 C13.3689289,28.6252632 15.2365418,29.7776842 17.3648888,30.1204211 C20.9251704,30.6938947 24.2886398,28.2602105 24.8618342,24.6951579 C25.3269502,21.7970526 23.3512588,19.0597895 20.4566901,18.5936842 C18.0953647,18.2134737 15.8652473,19.8277895 15.4850803,22.1915789 C15.1738815,24.1284211 16.494794,25.9578947 18.4292725,26.2703158 C20.0231146,26.5271579 21.528223,25.4378947 21.7847517,23.8421053 C21.8877837,23.2016842 21.7355487,22.5587368 21.3558021,22.0336842 C20.9760556,21.5073684 20.4146363,21.1608421 19.7745762,21.0576842 C19.2400713,20.9717895 18.7038844,21.0993684 18.266524,21.4168421 C17.8283225,21.7343158 17.5394124,22.2033684 17.454043,22.7381053 C17.4174561,22.9675789 17.573476,23.184 17.8026697,23.2206316 C18.0318633,23.2572632 18.2480203,23.1010526 18.2846072,22.8715789 C18.3346513,22.5587368 18.5037079,22.2846316 18.7593955,22.0993684 C19.0159242,21.9136842 19.328805,21.8391579 19.6412654,21.8892632 C20.059281,21.9566316 20.4264113,22.1831579 20.6745292,22.5267368 C20.9226471,22.8703158 21.0218943,23.2901053 20.9546081,23.7082105 C20.7716737,24.8458947 19.6988792,25.6218947 18.5630038,25.4391579 C17.0860715,25.2012632 16.0776194,23.8042105 16.3152239,22.3254737 C16.6213761,20.4197895 18.4191796,19.1187368 20.3229588,19.4252632 C22.7591401,19.8176842 24.4227917,22.1216842 24.0308495,24.5616842 C23.5312494,27.6686316 20.6005144,29.7894737 17.497779,29.2896842 C15.591056,28.9827368 13.9181526,27.9503158 12.7869032,26.3835789 C11.6556538,24.8164211 11.2014719,22.9018947 11.5084652,20.9928421 C12.3091711,16.0101053 17.0103745,12.608 21.9874514,13.4101053 C28.1029269,14.3945263 32.3743396,20.0412632 32.3743396,27.1423158 C32.3743396,27.3751579 32.5623205,27.5633684 32.7948784,27.5633684 C33.0274364,27.5633684 33.2154173,27.3751579 33.2154173,27.1423158 C33.2154173,19.6189474 28.6529916,13.6303158 22.1207622,12.5789474 C16.6865597,11.7018947 11.5534629,15.4168421 10.6787421,20.8585263 L10.6787421,20.8585263 Z" id="Shape"></path>
                        <g id="Group" transform="translate(48.361964, 5.947368)">
                            <path d="M18.0373303,5.54610526 C18.0373303,5.54610526 14.2158941,8.95747368 9.50165399,8.95747368 C4.78741387,8.95747368 0.439883601,6.96757895 0.439883601,5.08336842 C0.439883601,1.91663158 3.29113677,0.457684211 7.0911255,0.457684211 C11.8049451,0.457684211 18.0373303,5.54610526 18.0373303,5.54610526" id="Shape"></path>
                            <path d="M0.0193447855,5.08336842 C0.0193447855,7.29094737 4.62760912,9.37852632 9.50165399,9.37852632 L9.50165399,9.37852632 C14.3206083,9.37852632 18.1563428,6.00378947 18.3169886,5.86063158 C18.3270816,5.85178947 18.3232967,5.83663158 18.332128,5.82694737 C18.3409594,5.81810526 18.3552577,5.82189474 18.3632479,5.81221053 C18.4267493,5.73389474 18.4578691,5.64 18.4578691,5.54652632 L18.4578691,5.54652632 C18.4578691,5.44673684 18.4225439,5.34694737 18.3510523,5.26652632 C18.342221,5.25642105 18.3275021,5.26021053 18.3178297,5.25136842 C18.3089984,5.24252632 18.3127833,5.22778947 18.3031109,5.21978947 C18.044059,5.008 11.8995663,0.0366315789 7.09154604,0.0366315789 C2.66285178,0.0366315789 0.0193447855,1.92336842 0.0193447855,5.08336842 L0.0193447855,5.08336842 Z M0.860422416,5.08336842 C0.860422416,1.28842105 5.21762508,0.878736842 7.0911255,0.878736842 C10.9344297,0.878736842 15.9291692,4.46231579 17.3606834,5.55326316 C16.2849451,6.384 13.1456228,8.53642105 9.50165399,8.53642105 C4.92913545,8.53642105 0.860422416,6.60547368 0.860422416,5.08336842 L0.860422416,5.08336842 Z" id="Shape"></path>
                        </g>
                        <path d="M38.01755,14.4484211 C37.8299897,14.5848421 37.7879358,14.8484211 37.9241904,15.0362105 C38.0608655,15.2244211 38.3237022,15.2661053 38.5116831,15.1296842 C45.0973209,10.3423158 53.082512,10.4888421 56.4930818,10.5511579 L56.7020896,10.5549474 C60.2077011,10.6164211 63.7049019,11.6021053 65.0216089,11.9734737 L65.7419919,12.1456842 C65.9657186,12.1991579 66.1070196,12.0509474 66.1637924,11.8282105 C66.2205651,11.6050526 66.0039876,11.3658947 65.7819431,11.3061053 L65.249541,11.1629474 C63.9042373,10.784 60.330919,9.77684211 56.7168084,9.71326316 L56.5082212,9.70947368 C53.0143847,9.64547368 44.8311199,9.49557895 38.01755,14.4484211 L38.01755,14.4484211 Z" id="Shape"></path>
                        <g id="Group" transform="translate(18.924247, 29.947368)">
                            <path d="M3.84750962,12.6155789 C4.64022529,9.67326316 8.1702281,8.78905263 8.77328077,5.95073684 C9.36539942,3.16421053 8.19756313,1.136 6.5027917,0.680421053 C3.44883882,-0.141052632 1.53538721,1.36547368 0.860842955,3.87873684 C0.0243912513,6.99536842 3.82522106,12.4370526 3.82522106,12.4370526" id="Shape"></path>
                            <path d="M0.454602459,3.76968421 C0.362924998,4.112 0.321712194,4.47747368 0.321712194,4.85810526 C0.321712194,7.93515789 3.01105792,11.9915789 3.42865296,12.6033684 C3.42865296,12.6075789 3.42697081,12.6122105 3.42697081,12.6164211 C3.42697081,12.8016842 3.55060922,12.9722105 3.73816953,13.0227368 C3.96231672,13.0833684 4.19319253,12.9503158 4.25375012,12.7258947 C4.61457242,11.3861053 5.59779217,10.5082105 6.63904628,9.57894737 C7.72740073,8.60757895 8.8527626,7.60294737 9.18498827,6.03873684 C9.85448606,2.88842105 8.39731907,0.754105263 6.61213179,0.274526316 C3.56406646,-0.545684211 1.26245752,0.760842105 0.454602459,3.76968421 L0.454602459,3.76968421 Z M1.15858444,4.88126316 C1.15858444,4.56631579 1.19222754,4.26610526 1.26708345,3.98821053 C1.94835633,1.45136842 3.81681029,0.394105263 6.39387215,1.08715789 C7.54446635,1.39621053 8.50918239,2.63747368 8.50918239,4.52968421 C8.50918239,4.94357895 8.46292312,5.38947368 8.36241434,5.86315789 C8.08738196,7.15747368 7.11173191,8.02863158 6.07930911,8.95031579 C5.21215808,9.72421053 4.33869896,10.5334737 3.7974655,11.6256842 C2.99339529,10.3578947 1.15858444,7.20968421 1.15858444,4.88126316 L1.15858444,4.88126316 Z" id="Shape"></path>
                        </g>
                        <path d="M27.1588172,26.3330526 C24.1528058,29.224 23.3268675,32.9435789 22.8831991,34.9414737 L22.7503088,35.5263158 C22.6985826,35.7528421 22.8390425,35.984 23.0657129,36.0353684 C23.2923834,36.0871579 23.51611,35.9507368 23.5678363,35.7237895 L23.7040909,35.1246316 C24.1284145,33.2130526 24.918607,29.6551579 27.741684,26.9402105 C28.3119347,26.3915789 29.3346851,25.7890526 30.3397728,25.8943158 C31.127442,25.9772632 31.836891,26.4766316 32.4483545,27.3781053 C32.5787215,27.5705263 32.8402966,27.6206316 33.0324829,27.4901053 C33.2246691,27.3595789 33.2747132,27.0976842 33.1443462,26.9052632 C32.3873763,25.7886316 31.4735455,25.1667368 30.428086,25.0568421 C29.1366113,24.9208421 27.8926575,25.6269474 27.1588172,26.3330526 L27.1588172,26.3330526 Z" id="Shape"></path>
                        <path d="M0.969762508,10.0656842 C0.077379142,11.4787368 -0.211951563,13.1553684 0.155178823,14.7861053 C0.522309209,16.4168421 1.50174411,17.8071579 2.91349291,18.7002105 C4.64569229,19.7966316 6.81819581,20.1595789 8.873369,19.696 C10.9302243,19.2315789 12.6632648,18.0256842 13.7524603,16.3002105 C13.8765193,16.1035789 13.8180644,15.8437895 13.6216728,15.7195789 C13.4252811,15.5953684 13.1658087,15.6538947 13.0417497,15.8505263 C12.0724078,17.3861053 10.5265071,18.4602105 8.68833193,18.8749474 C6.84889515,19.2901053 4.90768798,18.9667368 3.36262837,17.9890526 C2.14138365,17.216 1.2935774,16.0130526 0.975650052,14.6016842 C0.657722707,13.1898947 0.907943302,11.7389474 1.68047311,10.5157895 C2.93115554,8.53515789 5.55784098,7.94273684 7.53563503,9.19452632 C9.07859195,10.1713684 9.54034357,12.2235789 8.56511405,13.7688421 C7.8094058,14.9650526 6.22187177,15.3233684 5.02627992,14.5671579 C4.58177039,14.2858947 4.27351544,13.848 4.15828781,13.3338947 C4.04306017,12.8210526 4.13431709,12.2934737 4.41481648,11.8492632 C4.62718859,11.5124211 4.95815263,11.2787368 5.34630996,11.1907368 C5.73446729,11.1031579 6.1343997,11.1722105 6.47041021,11.3848421 C6.98683188,11.7115789 7.14159016,12.3983158 6.8148315,12.9157895 C6.69077255,13.1124211 6.74922745,13.3726316 6.94561907,13.4964211 C7.1420107,13.6206316 7.40190369,13.5621053 7.5255421,13.3654737 C8.09999812,12.4555789 7.82790951,11.2475789 6.91954567,10.6728421 C6.39303107,10.3393684 5.76853093,10.2315789 5.16085234,10.3688421 C4.55359429,10.5061053 4.03591101,10.8715789 3.70368535,11.3987368 C3.30291186,12.0332632 3.17254482,12.7861053 3.33739604,13.5187368 C3.50224725,14.2517895 3.94255139,14.8770526 4.57672393,15.2787368 C6.16425796,16.2829474 8.2719985,15.8075789 9.27582465,14.2189474 C10.4991721,12.2812632 9.91966958,9.70821053 7.98519103,8.48294737 C5.6154548,6.98231579 2.46814231,7.69263158 0.969762508,10.0656842 L0.969762508,10.0656842 Z" id="Shape"></path>
                        <g id="Group" transform="translate(25.652868, 1.000000)">
                            <g transform="translate(6.308082, 14.210526)" id="Shape">
                                <path d="M0.535345912,0.520842105 C0.535345912,0.520842105 0.526935136,4.32252632 0.963874965,8.29852632"></path>
                                <path d="M0.114807097,0.52 C0.114807097,0.558315789 0.111442786,4.39115789 0.545438844,8.34442105 C0.571091711,8.57557895 0.778837886,8.74231579 1.0097137,8.71705263 C1.24058951,8.69136842 1.40712288,8.48378947 1.38189055,8.25221053 C0.952940956,4.34736842 0.955884727,0.559157895 0.955884727,0.521684211 C0.956305266,0.289263158 0.768744954,0.100210526 0.53618699,0.0997894737 C0.304470102,0.0993684211 0.115227635,0.287578947 0.114807097,0.52 L0.114807097,0.52 Z"></path>
                            </g>
                            <g transform="translate(-0.000000, 1.000000)" id="Shape">
                                <g transform="translate(0.000000, 1.000000)">
                                    <g transform="translate(4.625927, 0.000000)">
                                        <g>
                                            <path d="M3.78484934,2.65642105 C3.78484934,3.67831579 2.64645077,6.04378947 2.64645077,6.04378947 L1.90209706,6.08294737 C1.90209706,6.08294737 0.650994086,3.736 0.650994086,2.65642105 C0.651414625,1.42189474 1.35287337,0.421052632 2.21792171,0.421052632 C3.08297006,0.421052632 3.78484934,1.42189474 3.78484934,2.65642105 L3.78484934,2.65642105 Z"></path>
                                            <path d="M0.23087581,2.65642105 C0.23087581,3.808 1.39787102,6.03157895 1.53160237,6.28126316 L1.65734347,6.51747368 L2.91727776,6.45136842 L3.02535624,6.22652632 C3.14605088,5.97557895 4.20538815,3.74273684 4.20538815,2.65642105 C4.20538815,1.16673684 3.33234957,0 2.21792171,0 C1.10349385,0 0.23087581,1.16673684 0.23087581,2.65642105 L0.23087581,2.65642105 Z M1.07195344,2.65642105 C1.07195344,1.67284211 1.59678588,0.842105263 2.21792171,0.842105263 C2.83905754,0.842105263 3.36431052,1.67284211 3.36431052,2.65642105 C3.36431052,3.34105263 2.72256829,4.87621053 2.37268,5.63663158 C2.27343284,5.64168421 2.25408805,5.64294737 2.15147658,5.64842105 C1.76626302,4.88842105 1.07195344,3.37178947 1.07195344,2.65642105 L1.07195344,2.65642105 Z"></path>
                                        </g>
                                        <g transform="translate(0.000000, 6.315789)">
                                            <path d="M0.651414625,4.19494737 C0.651414625,3.17305263 1.78897212,0.807578947 1.78897212,0.807578947 L2.53374636,0.768 C2.53374636,0.768 3.78526988,3.11536842 3.78526988,4.19494737 C3.78526988,5.42905263 3.08381113,6.42989474 2.21792171,6.42989474 C1.35287337,6.42989474 0.651414625,5.42947368 0.651414625,4.19494737 L0.651414625,4.19494737 Z"></path>
                                            <path d="M1.51772458,0.400421053 L1.40964611,0.625263158 C1.28895147,0.876210526 0.230455271,3.10863158 0.230455271,4.19536842 C0.230455271,5.68463158 1.10307331,6.85136842 2.21750117,6.85136842 C3.33192903,6.85136842 4.20538815,5.68463158 4.20538815,4.19536842 C4.20538815,3.04336842 3.0379724,0.819789474 2.90424106,0.570105263 L2.77849995,0.333473684 L1.51772458,0.400421053 L1.51772458,0.400421053 Z M2.28478738,1.20294737 C2.67000094,1.96252632 3.36431052,3.47915789 3.36431052,4.19494737 C3.36431052,5.17810526 2.83905754,6.00884211 2.21750117,6.00884211 C1.59636534,6.00884211 1.0715329,5.17810526 1.0715329,4.19494737 C1.0715329,3.51031579 1.71285459,1.97473684 2.06274289,1.21431579 C2.16241059,1.20968421 2.18175537,1.20842105 2.28478738,1.20294737 L2.28478738,1.20294737 Z"></path>
                                        </g>
                                    </g>
                                    <g transform="translate(0.000000, 4.210526)">
                                        <g>
                                            <path d="M2.92148315,0.804631579 C3.94213086,0.804631579 6.30471792,1.94442105 6.30471792,1.94442105 L6.34424857,2.68968421 C6.34424857,2.68968421 3.99974467,3.94273684 2.92148315,3.94273684 C1.68846334,3.94273684 0.689263118,3.24 0.689263118,2.37347368 C0.689683657,1.50694737 1.68888388,0.804631579 2.92148315,0.804631579 L2.92148315,0.804631579 Z"></path>
                                            <path d="M0.269144842,2.37305263 C0.269144842,3.48926316 1.4344579,4.36336842 2.92190369,4.36336842 C4.07207735,4.36336842 6.29336337,3.19410526 6.54232235,3.06105263 L6.77866516,2.93473684 L6.71179949,1.67284211 L6.4876523,1.56463158 C6.23701117,1.44378947 4.00773491,0.383157895 2.92190369,0.383157895 C1.43403736,0.383578947 0.269144842,1.25726316 0.269144842,2.37305263 L0.269144842,2.37305263 Z M1.11022247,2.37305263 C1.11022247,1.75115789 1.93994556,1.22568421 2.92190369,1.22568421 C3.6056998,1.22568421 5.13898432,1.86863158 5.89847742,2.21852632 C5.90394443,2.31789474 5.90478551,2.33768421 5.90983197,2.44 C5.15117995,2.82568421 3.63639914,3.52084211 2.92190369,3.52084211 C1.93952502,3.52126316 1.11022247,2.99536842 1.11022247,2.37305263 L1.11022247,2.37305263 Z"></path>
                                        </g>
                                        <g transform="translate(6.728621, 0.000000)">
                                            <path d="M4.03801371,3.94231579 C3.01694546,3.94231579 0.655199474,2.80252632 0.655199474,2.80252632 L0.615248287,2.05726316 C0.615248287,2.05726316 2.95933164,0.804210526 4.03801371,0.804210526 C5.27103351,0.804210526 6.27023374,1.50652632 6.27023374,2.37305263 C6.2698132,3.23957895 5.27061297,3.94231579 4.03801371,3.94231579 L4.03801371,3.94231579 Z"></path>
                                            <path d="M0.417174505,1.68589474 L0.180831691,1.81221053 L0.248117901,3.07410526 L0.471844551,3.18231579 C0.722906224,3.30315789 2.95134141,4.36378947 4.03759317,4.36378947 C5.52503896,4.36378947 6.69035201,3.48968421 6.69035201,2.37389474 C6.69035201,1.25810526 5.52503896,0.384 4.03759317,0.384 C2.88741951,0.383578947 0.666554022,1.55284211 0.417174505,1.68589474 L0.417174505,1.68589474 Z M4.03801371,1.22568421 C5.01997184,1.22568421 5.84969492,1.75157895 5.84969492,2.37347368 C5.84969492,2.99536842 5.01997184,3.52126316 4.03801371,3.52126316 C3.35379705,3.52126316 1.82093307,2.87831579 1.06186051,2.52842105 C1.0563935,2.42905263 1.05513189,2.40926316 1.05008542,2.30694737 C1.80831691,1.92084211 3.32267718,1.22568421 4.03801371,1.22568421 L4.03801371,1.22568421 Z"></path>
                                        </g>
                                    </g>
                                </g>
                                <g transform="translate(0.682155, 1.263158)">
                                    <g transform="translate(1.000000, 1.000000)">
                                        <g>
                                            <path d="M3.49593917,1.43368421 C4.21800432,2.15663158 5.08389374,4.63452632 5.08389374,4.63452632 L4.5851347,5.18989474 C4.5851347,5.18989474 2.04255703,4.416 1.28012015,3.65221053 C0.40834319,2.77936842 0.197653243,1.57557895 0.809116681,0.962947368 C1.4214212,0.350315789 2.62416221,0.561263158 3.49593917,1.43368421 L3.49593917,1.43368421 Z"></path>
                                            <path d="M1.73051723,0.191157895 C1.24311274,0.191157895 0.821732845,0.355368421 0.512216277,0.665263158 C0.202699709,0.975157895 0.0391101098,1.39705263 0.0391101098,1.88505263 C0.0391101098,2.59663158 0.383110861,3.34905263 0.98321975,3.94947368 C1.79612128,4.76463158 4.19235145,5.51031579 4.46317845,5.59242105 L4.71928659,5.67073684 L5.56330799,4.73052632 L5.48130292,4.49515789 C5.38920492,4.23242105 4.56116399,1.90484211 3.79326011,1.13557895 L3.79326011,1.13557895 C3.19357176,0.535157895 2.44164836,0.191157895 1.73051723,0.191157895 L1.73051723,0.191157895 Z M1.57828217,3.35452632 C1.14134234,2.91705263 0.880187741,2.36757895 0.880187741,1.88505263 L0.880187741,1.88505263 C0.880187741,1.704 0.919718389,1.44842105 1.1072787,1.26063158 C1.29483901,1.07284211 1.55010607,1.03326316 1.73093776,1.03326316 C2.21287525,1.03326316 2.7616784,1.29389474 3.19861823,1.73136842 C3.68223787,2.216 4.31304609,3.75621053 4.60279733,4.54105263 C4.5363522,4.61515789 4.5233155,4.62989474 4.45434713,4.70652632 C3.64565099,4.44168421 2.08334929,3.86105263 1.57828217,3.35452632 L1.57828217,3.35452632 Z"></path>
                                        </g>
                                        <g transform="translate(4.625927, 4.631579)">
                                            <path d="M2.20194124,4.57473684 C1.47987609,3.85221053 0.61398667,1.37389474 0.61398667,1.37389474 L1.11274571,0.819368421 C1.11274571,0.819368421 3.65490284,1.59326316 4.41776026,2.35705263 C5.28869614,3.22905263 5.49938609,4.43368421 4.88792265,5.04631579 C4.27603867,5.65852632 3.0737182,5.44757895 2.20194124,4.57473684 L2.20194124,4.57473684 Z"></path>
                                            <path d="M0.134572421,1.27789474 L0.21657749,1.51326316 C0.30867549,1.77642105 1.13671642,4.10442105 1.90462029,4.87284211 C2.95596733,5.92589474 4.39715385,6.13305263 5.18524359,5.34484211 C5.97291279,4.55536842 5.76642824,3.11242105 4.7150812,2.05978947 C3.90091805,1.24463158 1.50552896,0.498947368 1.2351225,0.416842105 L0.979434901,0.338947368 L0.134572421,1.27789474 L0.134572421,1.27789474 Z M1.24353328,1.30315789 C2.05222942,1.56757895 3.61453112,2.14863158 4.12043931,2.65473684 C4.56999531,3.10484211 4.81853375,3.66568421 4.81853375,4.12505263 C4.81853375,4.37431579 4.74493945,4.59368421 4.59060171,4.74905263 C4.15113865,5.18821053 3.19357176,4.97263158 2.49926218,4.27705263 L2.49926218,4.27705263 C2.01564254,3.79284211 1.38525486,2.25263158 1.09508308,1.46778947 C1.16194875,1.39410526 1.17498545,1.37936842 1.24353328,1.30315789 L1.24353328,1.30315789 Z"></path>
                                        </g>
                                    </g>
                                    <g transform="translate(1.000000, 1.000000)">
                                        <g transform="translate(0.000000, 4.631579)">
                                            <path d="M1.28054069,2.35705263 C2.0021853,1.63368421 4.47789731,0.766736842 4.47789731,0.766736842 L5.03174693,1.26610526 C5.03174693,1.26610526 4.25879658,3.81136842 3.49635971,4.57473684 C2.62500329,5.44757895 1.42226227,5.65852632 0.809957758,5.04631579 C0.198494321,4.43368421 0.409184267,3.22905263 1.28054069,2.35705263 L1.28054069,2.35705263 Z"></path>
                                            <path d="M4.3391195,0.369263158 C4.07628274,0.461052632 1.75070309,1.29010526 0.98321975,2.05936842 C0.361242842,2.68210526 0.0349047217,3.44084211 0.0349047217,4.12042105 C0.0349047217,4.58989474 0.190924622,5.02189474 0.512636816,5.34442105 C1.30114709,6.13305263 2.74233361,5.92589474 3.79368065,4.87284211 C4.60742326,4.05852632 5.35177696,1.65978947 5.43420257,1.38905263 L5.51200225,1.13263158 L4.57420069,0.287578947 L4.3391195,0.369263158 L4.3391195,0.369263158 Z M1.1072787,4.74863158 C0.952520417,4.59368421 0.879346663,4.37431579 0.879346663,4.12505263 C0.879346663,3.66610526 1.1278851,3.10526316 1.57786164,2.65473684 L1.57786164,2.65473684 C2.06148127,2.17010526 3.59981226,1.53894737 4.38411715,1.24884211 C4.45771144,1.31536842 4.4724303,1.32842105 4.54896837,1.39705263 C4.28486999,2.20673684 3.70452642,3.77094737 3.19903877,4.27705263 C2.50514972,4.97263158 1.5471623,5.18821053 1.1072787,4.74863158 L1.1072787,4.74863158 Z"></path>
                                        </g>
                                        <g transform="translate(4.625927, 0.000000)">
                                            <path d="M4.41776026,3.65221053 C3.69611565,4.37515789 1.22124472,5.24252632 1.22124472,5.24252632 L0.666554022,4.74273684 C0.666554022,4.74273684 1.4399249,2.19747368 2.20194124,1.43410526 C3.07329766,0.561684211 4.27687975,0.350315789 4.88792265,0.962947368 C5.50022717,1.57557895 5.28953722,2.77936842 4.41776026,3.65221053 L4.41776026,3.65221053 Z"></path>
                                            <path d="M1.90462029,1.13642105 C1.09129823,1.95115789 0.346523984,4.34947368 0.264098376,4.62021053 L0.186298695,4.87663158 L1.12494133,5.72210526 L1.36002253,5.63957895 C1.62285929,5.54736842 3.94759786,4.71831579 4.7150812,3.94947368 C5.31519009,3.34905263 5.6587703,2.59663158 5.6587703,1.88505263 C5.6587703,1.88505263 5.6587703,1.88505263 5.6587703,1.88463158 C5.6587703,1.39663158 5.49476016,0.974736842 5.18524359,0.664842105 C4.8765681,0.355368421 4.45560875,0.191157895 3.96778372,0.191157895 C3.25665259,0.191157895 2.50472918,0.535157895 1.90462029,1.13642105 L1.90462029,1.13642105 Z M2.49926218,1.73178947 C2.93620201,1.29431579 3.48500516,1.03326316 3.96694265,1.03326316 L3.96736318,1.03326316 C4.14861541,1.03326316 4.4030414,1.07284211 4.58976063,1.26063158 C4.77774148,1.44884211 4.81727213,1.70442105 4.81727213,1.88547368 L4.81727213,1.88547368 C4.81727213,2.368 4.5569586,2.91705263 4.12001877,3.35452632 L4.12001877,3.35452632 C3.63639914,3.83873684 2.09848869,4.47031579 1.31460434,4.76042105 C1.24058951,4.69389474 1.22587065,4.68084211 1.14933258,4.61178947 C1.4138515,3.80168421 1.99419506,2.23789474 2.49926218,1.73178947 L2.49926218,1.73178947 Z"></path>
                                        </g>
                                    </g>
                                </g>
                            </g>
                        </g>
                        <path d="M35.6755693,23.6778947 C34.0375706,23.7216842 32.7406289,25.0913684 32.7839444,26.7305263 C32.7902525,26.9633684 32.9837004,27.1465263 33.2154173,27.1406316 C33.4479752,27.1343158 33.6309096,26.9406316 33.6250221,26.7086316 C33.5939022,25.5334737 34.5237135,24.5515789 35.6978579,24.52 C36.1305923,24.5086316 36.5418793,24.6665263 36.8560218,24.9646316 C37.1697437,25.2627368 37.3493138,25.6656842 37.3602478,26.0985263 C37.3779104,26.7675789 36.8484521,27.3263158 36.1806364,27.344 C35.9438731,27.3507368 35.7197259,27.2648421 35.5481461,27.1014737 C35.3761457,26.9385263 35.2781601,26.7187368 35.2722726,26.4816842 C35.2659645,26.2492632 35.0729372,26.0661053 34.8407998,26.0715789 C34.6086623,26.0778947 34.425728,26.2711579 34.431195,26.5035789 C34.4433906,26.9654737 34.6343152,27.3945263 34.9694847,27.7124211 C35.3042335,28.0303158 35.742435,28.1978947 36.2033455,28.1856842 C37.3337539,28.1557895 38.2303426,27.2096842 38.2013254,26.0757895 C38.1840834,25.4176842 37.9119947,24.8063158 37.4346832,24.3532632 C36.9577922,23.9002105 36.3328715,23.6602105 35.6755693,23.6778947 L35.6755693,23.6778947 Z" id="Shape"></path>
                    </g>
                </g>
            </g>
        </g>
    </g>
</svg>