<?xml version="1.0" encoding="UTF-8" standalone="no"?>
<svg width="46px" height="44px" viewBox="0 0 46 44" version="1.1" xmlns="http://www.w3.org/2000/svg" xmlns:xlink="http://www.w3.org/1999/xlink" xmlns:sketch="http://www.bohemiancoding.com/sketch/ns">
    <!-- Generator: Sketch 3.3.3 (12081) - http://www.bohemiancoding.com/sketch -->
    <title>detail</title>
    <desc>Created with Sketch.</desc>
    <defs></defs>
    <g id="Design" stroke="none" stroke-width="1" fill="none" fill-rule="evenodd" sketch:type="MSPage">
        <g id="Mobile---Home" sketch:type="MSArtboardGroup" transform="translate(-19.000000, -510.000000)" fill="#F7F2F2">
            <g id="post" sketch:type="MSLayerGroup" transform="translate(9.000000, 428.000000)">
                <g id="header" sketch:type="MSShapeGroup">
                    <g id="detail" transform="translate(31.140856, 99.223741) rotate(-20.000000) translate(-31.140856, -99.223741) translate(6.140856, 77.223741)">
                        <path d="M29.8562796,13.4482308 C25.6438602,15.9218974 24.268172,21.4101154 26.7893011,25.6830513 C26.9363011,25.9337821 27.2598065,26.0168333 27.5100753,25.8691282 C27.7613978,25.7224744 27.8446452,25.3997308 27.6965914,25.1500513 C25.4705161,21.3764744 26.6786559,16.5332179 30.3900108,14.3539103 C33.3442366,12.6192949 37.1625484,13.6064487 38.9017849,16.5537179 C40.2632473,18.8612821 39.4887312,21.8442949 37.1751935,23.2036026 C35.3753656,24.2606667 33.048129,23.6593333 31.9875161,21.8626923 C31.5913011,21.1903974 31.4806559,20.4045641 31.6766559,19.6497436 C31.8726559,18.8949231 32.3515914,18.2615256 33.0254731,17.8662436 C33.5402366,17.564 34.1419355,17.4804231 34.7204516,17.6297051 C35.2984409,17.7789872 35.783172,18.1437821 36.0850753,18.6568077 C36.2326022,18.9070128 36.5555806,18.9905897 36.8063763,18.8434103 C37.057172,18.6962308 37.1409462,18.3740128 36.9934194,18.1238077 C36.5482043,17.3684615 35.8353333,16.8317821 34.9844194,16.6120641 C34.1335054,16.3918205 33.2478172,16.5153462 32.4912151,16.9600385 C31.5749677,17.4977692 30.9232151,18.3592949 30.6571398,19.3858718 C30.3900108,20.4129744 30.540172,21.4821282 31.0802258,22.3962179 C32.4348387,24.6927436 35.409086,25.4612308 37.7099785,24.1098077 C40.5245806,22.4566667 41.4666452,18.8281667 39.8096022,16.0212436 C37.7763656,12.5735641 33.311043,11.4197821 29.8562796,13.4482308 L29.8562796,13.4482308 Z" id="Shape"></path>
                        <path d="M16.9197527,22.7920256 C15.4012796,23.8653846 14.3923011,25.463859 14.0793333,27.2936154 C13.5524516,30.3717692 15.6346882,33.3048462 18.7216882,33.8304872 C21.2470323,34.2599359 23.6527742,32.5605385 24.0853441,30.0416667 C24.4388817,27.9674872 23.0368495,25.9921282 20.9593548,25.6383718 C19.2396129,25.3455897 17.6010108,26.5035769 17.3070108,28.2182179 C17.2580108,28.5046923 17.4508495,28.7764487 17.7374731,28.8248077 C18.0240968,28.8742179 18.2964946,28.6818333 18.3454946,28.3958846 C18.5414946,27.2510385 19.6342473,26.4793974 20.7817957,26.6744103 C22.2865699,26.9309231 23.3023978,28.3622436 23.0458065,29.8645256 C22.7117634,31.8120256 20.8508172,33.1266538 18.8981935,32.7944487 C17.680043,32.5862949 16.6157419,31.9187308 15.9018172,30.9131795 C15.1884194,29.9076282 14.9096989,28.6855128 15.1178172,27.4702308 C15.3833656,25.9174872 16.2395484,24.5608077 17.5283011,23.6493462 C18.8170538,22.7389359 20.3834731,22.3836026 21.9398817,22.6485256 C26.0284839,23.3455256 28.7872366,27.2305385 28.0885914,31.3089872 C27.203957,36.478141 22.268129,39.9662949 17.0857204,39.0842692 C13.9133656,38.5439103 11.1419677,36.8035128 9.28207527,34.1842436 C7.42165591,31.5644487 6.6956129,28.3780128 7.23724731,25.2120769 C7.28624731,24.9261282 7.0934086,24.6543718 6.80678495,24.6060128 C6.52016129,24.5566026 6.24776344,24.7489872 6.19876344,25.0354615 C5.60970968,28.4778846 6.39897849,31.9444872 8.42273118,34.7924103 C10.4454301,37.6413846 13.4591935,39.5336923 16.9086882,40.1208333 C22.6638172,41.1001026 28.1454946,37.2266538 29.1270753,31.4861282 C29.9237204,26.8368333 26.7787634,22.4077821 22.1174409,21.6130128 C20.2844194,21.3002564 18.437172,21.7191923 16.9197527,22.7920256 L16.9197527,22.7920256 Z" id="Shape"></path>
                        <g id="Group" transform="translate(7.376344, 1.000000)">
                            <g transform="translate(14.225806, 15.769231)" id="Shape">
                                <path d="M0.788215054,1.02657692 C0.788215054,1.02447436 4.65868817,6.64883333 4.73824731,6.84752564"></path>
                                <path d="M0.688634409,0.510397436 C0.513182796,0.544038462 0.367763441,0.664935897 0.300849462,0.829987179 C0.233935484,0.994512821 0.255537634,1.18321795 0.357752688,1.32934615 C0.549537634,1.60320513 4.07174194,6.73030769 4.26826882,7.08353846 C4.40367742,7.32638462 4.70874194,7.43203846 4.96006452,7.31271795 C5.2113871,7.19339744 5.33098925,6.90955128 5.22772043,6.65198718 C5.194,6.5689359 5.15606452,6.47379487 3.16919355,3.56647436 C1.03532258,0.443641026 1.03532258,0.443641026 0.688634409,0.510397436 L0.688634409,0.510397436 Z"></path>
                            </g>
                            <g id="Shape">
                                <g transform="translate(1.580645, 1.576923)">
                                    <g transform="translate(1.053763, 0.000000)">
                                        <g>
                                            <path d="M5.04594624,2.48102564 C5.96904301,3.62955128 6.82206452,7.31482051 6.82206452,7.31482051 L6.01804301,8.03074359 C6.01804301,8.03074359 2.48688172,6.52162821 1.51109677,5.30792308 C0.396215054,3.92023077 0.283462366,2.16248718 1.25924731,1.38138462 C2.23503226,0.600282051 3.93106452,1.09385897 5.04594624,2.48102564 L5.04594624,2.48102564 Z"></path>
                                            <path d="M0.929946237,0.971910256 C-0.291892473,1.94907692 -0.217075269,3.99802564 1.10012903,5.63697436 C2.12860215,6.91638462 5.43636559,8.35401282 5.81045161,8.51433333 L6.11815054,8.64574359 L7.40532258,7.49984615 L7.33524731,7.19655128 C7.24515054,6.80757692 6.42690323,3.35937179 5.45691398,2.15197436 C4.71401075,1.22737179 3.68184946,0.610794872 2.69605376,0.502512821 C2.01743011,0.428397436 1.40677419,0.590820513 0.929946237,0.971910256 L0.929946237,0.971910256 Z M1.92206452,4.97992308 C1.39729032,4.32655128 1.12278495,3.56857692 1.12278495,2.92939744 C1.12278495,2.45316667 1.27505376,2.04316667 1.58854839,1.7924359 C1.90941935,1.53592308 2.30510753,1.51805128 2.58066667,1.54801282 C3.2945914,1.62633333 4.06278495,2.09835897 4.63445161,2.81007692 L4.63445161,2.81007692 C5.27092473,3.60221795 5.94849462,5.97496154 6.23511828,7.13294872 C6.10497849,7.24911538 6.05650538,7.29221795 5.92056989,7.41311538 C4.81095699,6.91480769 2.58909677,5.80885897 1.92206452,4.97992308 L1.92206452,4.97992308 Z"></path>
                                        </g>
                                        <g transform="translate(5.795699, 7.884615)">
                                            <path d="M2.81091398,6.25197436 C1.8878172,5.10292308 1.03426882,1.41765385 1.03426882,1.41765385 L1.83829032,0.70225641 C1.83829032,0.70225641 5.36997849,2.21137179 6.34523656,3.42455128 C7.46011828,4.81224359 7.57287097,6.56946154 6.59708602,7.3505641 C5.62130108,8.13166667 3.9257957,7.63914103 2.81091398,6.25197436 L2.81091398,6.25197436 Z"></path>
                                            <path d="M0.450483871,1.23262821 L0.521086022,1.53592308 C0.611182796,1.92542308 1.42995699,5.37310256 2.39994624,6.58102564 L2.39994624,6.58102564 C3.71715054,8.21944872 5.70507527,8.73720513 6.9263871,7.7605641 C8.14769892,6.78339744 8.0734086,4.73444872 6.7562043,3.0955 C5.72825806,1.81661538 2.41996774,0.378987179 2.04588172,0.218666667 L1.7381828,0.0872564103 L0.450483871,1.23262821 L0.450483871,1.23262821 Z M1.93523656,1.31988462 C3.04537634,1.81819231 5.26776344,2.92414103 5.93374194,3.75255128 C6.45851613,4.40592308 6.73302151,5.16389744 6.73302151,5.80255128 C6.73302151,6.27878205 6.58075269,6.68825641 6.26725806,6.93951282 C5.53225806,7.52770513 4.13760215,7.06198718 3.22188172,5.92292308 C2.5854086,5.13078205 1.90783871,2.75803846 1.62068817,1.59952564 C1.75135484,1.48388462 1.79982796,1.44078205 1.93523656,1.31988462 L1.93523656,1.31988462 Z"></path>
                                        </g>
                                    </g>
                                    <g transform="translate(0.000000, 1.051282)">
                                        <g transform="translate(0.000000, 6.307692)">
                                            <path d="M2.03903226,2.72597436 C3.19026882,1.80505128 6.88370968,0.954564103 6.88370968,0.954564103 L7.60184946,1.75616667 C7.60184946,1.75616667 6.08917204,5.27953846 4.87260215,6.2525 C3.48163441,7.36475641 1.72026882,7.47671795 0.937322581,6.50323077 C0.154376344,5.52974359 0.648064516,3.83823077 2.03903226,2.72597436 L2.03903226,2.72597436 Z"></path>
                                            <path d="M6.76516129,0.442064103 C6.37526882,0.531948718 2.91945161,1.34774359 1.7092043,2.31544872 C0.782946237,3.05660256 0.164913978,4.08580769 0.0563763441,5.06928205 C0.0447849462,5.17651282 0.0389892473,5.28164103 0.0389892473,5.38571795 C0.0389892473,5.9360641 0.204956989,6.43121795 0.52688172,6.83175641 C1.50635484,8.05071795 3.56013978,7.97607692 5.20295699,6.6625 C6.4853871,5.63697436 7.9264086,2.33647436 8.08710753,1.96326923 L8.21882796,1.65576923 L7.06917204,0.372679487 L6.76516129,0.442064103 L6.76516129,0.442064103 Z M1.34934409,6.17417949 C1.14860215,5.92397436 1.09327957,5.6285641 1.09327957,5.38046154 C1.09327957,5.31055128 1.09749462,5.24484615 1.10434409,5.18439744 C1.18284946,4.47215385 1.65546237,3.70629487 2.36886022,3.13597436 L2.36886022,3.13597436 C3.16287097,2.501 5.54121505,1.82555128 6.70193548,1.53960256 C6.81837634,1.6694359 6.86158065,1.71779487 6.98276344,1.85341026 C6.48327957,2.9609359 5.37472043,5.17808974 4.54382796,5.8425 C3.40154839,6.7560641 1.93839785,6.90797436 1.34934409,6.17417949 L1.34934409,6.17417949 Z"></path>
                                        </g>
                                        <g transform="translate(7.376344, 0.000000)">
                                            <path d="M6.34523656,5.48191026 C5.194,6.40283333 1.50055914,7.25332051 1.50055914,7.25332051 L0.782419355,6.45119231 C0.782419355,6.45119231 2.29509677,2.92834615 3.51166667,1.95538462 C4.90210753,0.842602564 6.66347312,0.730641026 7.44641935,1.70412821 C8.22936559,2.67761538 7.7362043,4.36912821 6.34523656,5.48191026 L6.34523656,5.48191026 Z"></path>
                                            <path d="M3.18131183,1.54538462 C1.8994086,2.57038462 0.457860215,5.87088462 0.297688172,6.24408974 L0.165967742,6.55158974 L1.31562366,7.83520513 L1.61963441,7.76529487 C2.00952688,7.67541026 5.46534409,6.85961538 6.6755914,5.89191026 L6.6755914,5.89191026 C8.31788172,4.57780769 8.83686022,2.59403846 7.85791398,1.37560256 C7.47539785,0.899897436 6.91426882,0.608692308 6.2345914,0.534051282 C5.24826882,0.426294872 4.10704301,0.804230769 3.18131183,1.54538462 L3.18131183,1.54538462 Z M3.84096774,2.36538462 C4.55383871,1.7950641 5.40527957,1.50070513 6.1192043,1.57902564 C6.39476344,1.60898718 6.77780645,1.71253846 7.03492473,2.03265385 C7.2087957,2.24869231 7.29046237,2.52202564 7.29046237,2.82321795 C7.29046237,3.54492308 6.82101075,4.42694872 6.01593548,5.07085897 C5.22192473,5.70583333 2.84358065,6.38128205 1.68286022,6.66723077 C1.56641935,6.53687179 1.52321505,6.48903846 1.40203226,6.35342308 C1.90151613,5.24642308 3.00954839,3.03032051 3.84096774,2.36538462 L3.84096774,2.36538462 Z"></path>
                                        </g>
                                    </g>
                                </g>
                                <g>
                                    <g transform="translate(0.000000, 6.307692)">
                                        <g>
                                            <path d="M4.07121505,0.71224359 C5.53858065,0.873615385 8.7536129,2.87735897 8.7536129,2.87735897 L8.69302151,3.95124359 C8.69302151,3.95124359 5.12603226,5.37520513 3.57647312,5.20489744 C1.80456989,5.0109359 0.479462366,3.84769231 0.616451613,2.60770513 C0.752387097,1.36614103 2.29931183,0.518282051 4.07121505,0.71224359 L4.07121505,0.71224359 Z"></path>
                                            <path d="M1.00845161,0.971910256 C0.475774194,1.39820513 0.15911828,1.94434615 0.0922043011,2.55041026 C0.0252903226,3.15594872 0.216021505,3.75728205 0.642795699,4.28870513 C1.26293548,5.06034615 2.33830108,5.59807692 3.51851613,5.72738462 C5.15184946,5.90715385 8.51072043,4.58989744 8.88796774,4.43903846 L9.19935484,4.31498718 L9.29682796,2.59614103 L9.03233333,2.43161538 C8.69302151,2.22030769 5.67135484,0.359012821 4.12864516,0.18975641 L4.12864516,0.18975641 C2.94790323,0.0604487179 1.7813871,0.352705128 1.00845161,0.971910256 L1.00845161,0.971910256 Z M3.63337634,4.68241026 C2.72450538,4.5830641 1.91416129,4.18988462 1.46473118,3.63112821 C1.2913871,3.41561538 1.09433333,3.07289744 1.13911828,2.665 C1.18390323,2.25657692 1.45103226,1.96484615 1.66705376,1.79191026 C2.22712903,1.34353846 3.1043871,1.13538462 4.01273118,1.23473077 C5.02487097,1.34564103 7.18508602,2.54567949 8.2088172,3.16225641 C8.19880645,3.33676923 8.19564516,3.40089744 8.18510753,3.58276923 C7.04598925,4.01379487 4.69135484,4.79857692 3.63337634,4.68241026 L3.63337634,4.68241026 Z"></path>
                                        </g>
                                        <g transform="translate(9.483871, 1.051282)">
                                            <path d="M5.3668172,5.39044872 C3.89997849,5.22907692 0.683892473,3.22638462 0.683892473,3.22638462 L0.745010753,2.1525 C0.745010753,2.1525 4.312,0.728538462 5.86208602,0.898846154 C7.6324086,1.09280769 8.95856989,2.25605128 8.82210753,3.49708974 C8.6845914,4.73760256 7.13819355,5.5849359 5.3668172,5.39044872 L5.3668172,5.39044872 Z"></path>
                                            <path d="M0.549010753,1.66470513 L0.237623656,1.78875641 L0.139623656,3.50760256 L0.40411828,3.67212821 C0.743956989,3.8834359 3.76667742,5.74367949 5.30833333,5.9129359 L5.30833333,5.9129359 C7.40005376,6.14264103 9.17353763,5.10660256 9.34530108,3.55491026 C9.51548387,2.00164103 8.01070968,0.605538462 5.91898925,0.376358974 C4.28565591,0.197115385 0.926784946,1.51384615 0.549010753,1.66470513 L0.549010753,1.66470513 Z M5.80465591,1.42185897 C7.25937634,1.58112821 8.40165591,2.50573077 8.2983871,3.44032051 C8.19511828,4.37385897 6.87896774,5.02828205 5.42424731,4.86796154 L5.42424731,4.86796154 C4.41263441,4.75705128 2.25189247,3.55753846 1.22763441,2.94096154 C1.23764516,2.76644872 1.24133333,2.70179487 1.25187097,2.52097436 C2.39151613,2.08994872 4.74615054,1.30516667 5.80465591,1.42185897 L5.80465591,1.42185897 Z"></path>
                                        </g>
                                    </g>
                                    <g transform="translate(5.795699, -0.000000)">
                                        <g transform="translate(0.000000, 9.987179)">
                                            <path d="M0.794010753,5.27533333 C0.955236559,3.81142308 2.96423656,0.603435897 2.96423656,0.603435897 L4.04012903,0.663884615 C4.04012903,0.663884615 5.46745161,4.22247436 5.29674194,5.76838462 C5.10232258,7.53611538 3.93633333,8.85810256 2.69341935,8.72248718 C1.44945161,8.58529487 0.599064516,7.04201282 0.794010753,5.27533333 L0.794010753,5.27533333 Z"></path>
                                            <path d="M2.51744086,0.324846154 C2.30510753,0.663884615 0.439419355,3.6784359 0.270290323,5.21751282 C0.248688172,5.41252564 0.238150538,5.60438462 0.238150538,5.7925641 C0.238150538,7.62074359 1.22394624,9.08938462 2.63493548,9.24497436 C4.19187097,9.41475641 5.59021505,7.91247436 5.81993548,5.82567949 C6.00012903,4.19619231 4.67976344,0.845230769 4.52854839,0.468871795 L4.4042043,0.158217949 L2.68182796,0.060974359 L2.51744086,0.324846154 L2.51744086,0.324846154 Z M2.75032258,8.2 C1.90889247,8.10748718 1.29349462,7.03780769 1.29349462,5.76891026 C1.29349462,5.6259359 1.30139785,5.47980769 1.31773118,5.33262821 L1.31773118,5.33262821 C1.42837634,4.32339744 2.63177419,2.16774359 3.24980645,1.14642308 C3.4242043,1.15641026 3.48901075,1.1595641 3.67078495,1.17007692 C4.07384946,2.23029487 4.78408602,4.34284615 4.78408602,5.48085897 C4.78408602,5.56338462 4.78039785,5.64012821 4.77249462,5.71161538 C4.61337634,7.16238462 3.68711828,8.30197436 2.75032258,8.2 L2.75032258,8.2 Z"></path>
                                        </g>
                                        <g transform="translate(1.053763, 0.000000)">
                                            <path d="M5.48273118,4.50789744 C5.32150538,5.97180769 3.31355914,9.17979487 3.31355914,9.17979487 L2.23713978,9.11882051 C2.23713978,9.11882051 0.809817204,5.56023077 0.98,4.01432051 C1.17494624,2.24764103 2.34093548,0.924076923 3.58384946,1.06179487 C4.8278172,1.19688462 5.67767742,2.74016667 5.48273118,4.50789744 L5.48273118,4.50789744 Z"></path>
                                            <path d="M1.90046237,1.0865 C1.12647312,1.70517949 0.586419355,2.77801282 0.45627957,3.95597436 C0.276612903,5.58598718 1.59697849,8.93642308 1.74819355,9.31330769 L1.87253763,9.62396154 L3.59544086,9.72173077 L3.76035484,9.45785897 C3.97216129,9.11882051 5.83732258,6.10374359 6.00645161,4.56519231 C6.027,4.38069231 6.03701075,4.19724359 6.03701075,4.01484615 C6.03701075,3.03294872 5.74669892,2.1025641 5.22297849,1.45234615 C4.79567742,0.920923077 4.24877419,0.605012821 3.64127957,0.538782051 C3.03536559,0.4715 2.43313978,0.66125641 1.90046237,1.0865 L1.90046237,1.0865 Z M1.49265591,4.30132051 C1.49265591,4.21932051 1.49634409,4.14205128 1.50424731,4.07108974 C1.60435484,3.16383333 1.99846237,2.35487179 2.5595914,1.90702564 C2.7756129,1.73461538 3.1186129,1.53855128 3.52641935,1.58375641 C3.93580645,1.62791026 4.22822581,1.89441026 4.40156989,2.10992308 C4.77670968,2.57669231 4.98377419,3.26317949 4.98377419,4.00485897 C4.98377419,4.15151282 4.97534409,4.30026923 4.95901075,4.45007692 L4.95901075,4.45007692 C4.84783871,5.45930769 3.64549462,7.61496154 3.02746237,8.63628205 C2.85253763,8.62629487 2.78825806,8.62261538 2.60648387,8.61210256 C2.20341935,7.55241026 1.49265591,5.43880769 1.49265591,4.30132051 L1.49265591,4.30132051 Z"></path>
                                        </g>
                                    </g>
                                </g>
                            </g>
                        </g>
                        <path d="M27.6618172,32.9957692 C27.5427419,33.2606923 27.6618172,33.5729231 27.9278925,33.690141 C28.1934409,33.8089359 28.5064086,33.690141 28.6239032,33.4246923 C29.4374086,31.6096538 30.927957,30.8506282 32.7135591,31.3410513 C33.3368602,31.5124103 33.8563656,31.9166282 34.175129,32.4780128 C34.4944194,33.0399231 34.576086,33.6927692 34.4037957,34.3151282 C34.1345591,35.2875641 33.1229462,35.8594615 32.1482151,35.5924359 C31.4248065,35.3921667 30.9985591,34.6426026 31.1987742,33.9214231 C31.2762258,33.6417821 31.1118387,33.3521538 30.8315376,33.2748846 C30.5512366,33.1976154 30.2609247,33.3616154 30.1834731,33.6412564 C29.8283548,34.9206667 30.5839032,36.2505385 31.867914,36.6058718 C33.4032473,37.0274359 34.9965376,36.1254359 35.4196237,34.5952949 C35.6672581,33.7022308 35.5508172,32.7660641 35.0919032,31.9592051 C34.634043,31.1533974 33.8885054,30.574141 32.9938602,30.3276154 C30.7224731,29.7036795 28.6792258,30.7255256 27.6618172,32.9957692 L27.6618172,32.9957692 Z" id="Shape"></path>
                        <g id="Group" transform="translate(0.000000, 26.230769)">
                            <path d="M6.0702043,0.33325641 C5.27935484,2.23239744 5.24932258,3.67791026 5.22087097,5.07611538 C5.19505376,6.33082051 5.17029032,7.51561538 4.57754839,8.98846154 C4.46901075,9.25811538 4.59915054,9.56298718 4.86996774,9.67232051 C5.14025806,9.78060256 5.44584946,9.65076923 5.55544086,9.38058974 C6.22089247,7.72955128 6.24829032,6.39179487 6.27463441,5.09819231 C6.30255914,3.73783333 6.32890323,2.45264103 7.04335484,0.736948718 C7.15505376,0.468871795 7.02807527,0.161371795 6.75883871,0.0494102564 C6.49012903,-0.062025641 6.18190323,0.0651794872 6.0702043,0.33325641 L6.0702043,0.33325641 Z" id="Shape"></path>
                            <g transform="translate(0.000000, 7.884615)">
                                <g transform="translate(0.000000, 0.000000)">
                                    <ellipse id="Oval" cx="1.75030108" cy="2.14882051" rx="1.22447312" ry="1.22158974"></ellipse>
                                    <path d="M0.290311828,1.18374359 C-0.242365591,1.9885 -0.0210752688,3.07447436 0.782946237,3.60589744 C1.59012903,4.13679487 2.67919355,3.9155 3.21134409,3.11284615 C3.74402151,2.31019231 3.52273118,1.22369231 2.71765591,0.69174359 C1.91258065,0.160846154 0.824043011,0.381615385 0.290311828,1.18374359 L0.290311828,1.18374359 Z M1.36356989,2.72912821 C1.04427957,2.51834615 0.956290323,2.08469231 1.16862366,1.76405128 C1.38095699,1.44551282 1.81510753,1.35720513 2.13545161,1.56851282 C2.4557957,1.78034615 2.54431183,2.21347436 2.33197849,2.5330641 C2.11964516,2.85265385 1.68549462,2.94096154 1.36356989,2.72912821 L1.36356989,2.72912821 Z" id="Shape"></path>
                                </g>
                                <g transform="translate(3.161290, 2.628205)">
                                    <ellipse id="Oval" cx="2.25768817" cy="2.17247436" rx="1.22447312" ry="1.22158974"></ellipse>
                                    <path d="M0.797172043,1.20792308 C0.539,1.59689744 0.447849462,2.06366667 0.541634409,2.5215 C0.634892473,2.97880769 0.900967742,3.37251282 1.29086022,3.62955128 C2.09593548,4.1615 3.18552688,3.94020513 3.71873118,3.1365 L3.71873118,3.1365 C4.2514086,2.33384615 4.0295914,1.24734615 3.22504301,0.715923077 C2.41944086,0.183448718 1.33037634,0.404217949 0.797172043,1.20792308 L0.797172043,1.20792308 Z M1.87201075,2.75330769 C1.71710753,2.65133333 1.6112043,2.49416667 1.57432258,2.31176923 C1.53691398,2.12937179 1.57326882,1.94329487 1.67601075,1.78823077 C1.88834409,1.46864103 2.32249462,1.38033333 2.64336559,1.59216667 C2.84568817,1.72620513 2.95527957,1.94802564 2.95527957,2.17352564 C2.95527957,2.30546154 2.91787097,2.43844872 2.83989247,2.55671795 C2.62703226,2.87683333 2.19288172,2.96514103 1.87201075,2.75330769 L1.87201075,2.75330769 Z" id="Shape"></path>
                                </g>
                                <g transform="translate(0.000000, 4.205128)">
                                    <ellipse id="Oval" cx="1.76716129" cy="1.81661538" rx="1.22394624" ry="1.2210641"></ellipse>
                                    <path d="M1.41836559,0.104602564 C0.959978495,0.198166667 0.565344086,0.463615385 0.307172043,0.852589744 C-0.226032258,1.65524359 -0.00474193548,2.74174359 0.800333333,3.27369231 C1.19022581,3.53125641 1.65809677,3.62219231 2.11701075,3.52862821 C2.57539785,3.4350641 2.96950538,3.16908974 3.22715054,2.78011538 C3.41946237,2.49048718 3.51904301,2.15880769 3.51904301,1.81924359 C3.51904301,1.70255128 3.50745161,1.58533333 3.48374194,1.46864103 C3.39048387,1.01028205 3.1244086,0.616576923 2.73346237,0.359012821 C2.34409677,0.101974359 1.87727957,0.0115641026 1.41836559,0.104602564 L1.41836559,0.104602564 Z M1.38253763,2.39744872 C1.06166667,2.18508974 0.973677419,1.75248718 1.18548387,1.43289744 C1.28822581,1.27730769 1.44576344,1.17165385 1.6285914,1.13485897 C1.81141935,1.0980641 1.9974086,1.13433333 2.15231183,1.23578205 C2.30774194,1.33828205 2.41417204,1.49492308 2.45105376,1.67784615 C2.48793548,1.85971795 2.45210753,2.04526923 2.34883871,2.19928205 L2.34778495,2.20085897 C2.24556989,2.35592308 2.08855914,2.46157692 1.90625806,2.49837179 C1.72343011,2.53621795 1.53744086,2.50047436 1.38253763,2.39744872 L1.38253763,2.39744872 Z M3.22662366,2.78169231 L3.22767742,2.78011538 C3.22715054,2.78011538 3.22662366,2.78116667 3.22662366,2.78169231 L3.22662366,2.78169231 Z" id="Shape"></path>
                                </g>
                            </g>
                        </g>
                        <path d="M42.2179785,11.8292564 C41.0562043,12.4784231 40.6404946,13.9496923 41.2906667,15.1092564 C41.4334516,15.3620897 41.7543226,15.4530256 42.0077527,15.3111026 C42.2617097,15.1691795 42.3523333,14.8490641 42.2100753,14.5957051 C42.0325161,14.2782179 41.9887849,13.9118462 42.0878387,13.5628205 C42.1868925,13.2137949 42.4155591,12.9241667 42.7332688,12.7465 C43.1605699,12.507859 43.6547849,12.4495128 44.1258172,12.5819744 C44.5979032,12.7144359 44.9893763,13.0224615 45.2291075,13.4492821 C45.5457634,14.0127692 45.6226882,14.6650897 45.4472366,15.2874487 C45.2712581,15.9087564 44.8639785,16.4249359 44.2986344,16.7397949 C42.7864839,17.5855513 40.7627312,17.126141 39.592,15.6701154 C39.4096989,15.4435641 39.0777634,15.4072949 38.8512043,15.5891667 C38.6246452,15.7710385 38.5877634,16.1016667 38.7700645,16.3282179 C40.2595591,18.1795256 42.8576129,18.7508974 44.8139247,17.6565128 C45.6237419,17.2044615 46.2091075,16.464359 46.4614839,15.5723462 C46.7138602,14.6803333 46.6026882,13.743641 46.1479892,12.9352051 C45.7712688,12.2634359 45.1542903,11.7787949 44.411914,11.5695897 C43.6695376,11.3609103 42.8902796,11.4534231 42.2179785,11.8292564 L42.2179785,11.8292564 Z" id="Shape"></path>
                        <g id="Group" transform="translate(38.989247, 16.243590)">
                            <path d="M0.573247312,0.0636025641 C0.315075269,0.197641026 0.214967742,0.515128205 0.349322581,0.772692308 C0.607494624,1.26679487 1.07378495,1.95170513 1.61383871,2.74384615 C2.62650538,4.22983333 3.88627957,6.07851282 4.24613978,7.38157692 C4.32306452,7.66121795 4.61284946,7.82574359 4.89367742,7.74847436 C5.17397849,7.67173077 5.33889247,7.38262821 5.26144086,7.10246154 C4.85574194,5.63224359 3.54117204,3.70314103 2.48477419,2.15302564 C1.96316129,1.38769231 1.51267742,0.726961538 1.28295699,0.287 C1.14965591,0.0289102564 0.830892473,-0.0709615385 0.573247312,0.0636025641 L0.573247312,0.0636025641 Z" id="Shape"></path>
                            <g transform="translate(2.107527, 6.307692)">
                                <g transform="translate(3.688172, 0.000000)">
                                    <ellipse id="Oval" cx="2.23450538" cy="2.16353846" rx="1.22447312" ry="1.22158974"></ellipse>
                                    <path d="M1.40677419,0.623410256 C0.556387097,1.07861538 0.234989247,2.13988462 0.690741935,2.98879487 L0.691268817,2.98932051 C0.91255914,3.40089744 1.28137634,3.7015641 1.73027957,3.83612821 C2.17812903,3.97069231 2.65126882,3.92338462 3.06276344,3.70261538 C3.47373118,3.48289744 3.77616129,3.116 3.91104301,2.66920513 C4.04645161,2.22135897 3.99955914,1.74880769 3.77774194,1.33723077 C3.55750538,0.926705128 3.18921505,0.625512821 2.74083871,0.490423077 C2.29246237,0.355333333 1.81932258,0.402641026 1.40677419,0.623410256 L1.40677419,0.623410256 Z M1.53691398,2.16511538 C1.53691398,1.91596154 1.67074194,1.67521795 1.90467742,1.54958974 C2.06906452,1.46180769 2.25768817,1.44341026 2.43630108,1.49702564 C2.61491398,1.55064103 2.7613871,1.67048718 2.84884946,1.83396154 C2.93736559,1.99848718 2.95580645,2.18719231 2.90206452,2.36538462 C2.84832258,2.54305128 2.72872043,2.68917949 2.56433333,2.7764359 C2.39941935,2.86474359 2.21184946,2.88366667 2.03323656,2.83005128 C1.85462366,2.7764359 1.70762366,2.65658974 1.61963441,2.49258974 C1.56378495,2.38798718 1.53691398,2.27602564 1.53691398,2.16511538 L1.53691398,2.16511538 Z" id="Shape"></path>
                                </g>
                                <g transform="translate(0.000000, 2.628205)">
                                    <ellipse id="Oval" cx="2.02427957" cy="1.83711538" rx="1.225" ry="1.22211538"></ellipse>
                                    <path d="M1.19654839,0.297512821 C0.608548387,0.612897436 0.273451613,1.21738462 0.273451613,1.84079487 C0.273451613,2.11885897 0.33983871,2.40112821 0.480516129,2.66237179 C0.701806452,3.07394872 1.07009677,3.37514103 1.51847312,3.51023077 C1.96684946,3.64532051 2.43998925,3.59801282 2.85201075,3.37724359 C3.70292473,2.9225641 4.02537634,1.86076923 3.56909677,1.01133333 C3.11123656,0.161897436 2.04746237,-0.157692308 1.19654839,0.297512821 L1.19654839,0.297512821 Z M1.82248387,2.50415385 C1.64387097,2.45001282 1.49739785,2.33016667 1.4094086,2.16616667 L1.4094086,2.16564103 C1.22763441,1.82765385 1.35566667,1.40503846 1.69497849,1.22316667 C2.03376344,1.04182051 2.45790323,1.16955128 2.6402043,1.5080641 C2.82197849,1.84605128 2.69394624,2.26919231 2.35358065,2.45053846 C2.18919355,2.53937179 2.00109677,2.55776923 1.82248387,2.50415385 L1.82248387,2.50415385 Z" id="Shape"></path>
                                </g>
                                <g transform="translate(3.688172, 4.205128)">
                                    <ellipse id="Oval" cx="1.85883871" cy="1.81241026" rx="1.225" ry="1.22211538"></ellipse>
                                    <path d="M1.03163441,0.272807692 C0.18072043,0.728012821 -0.141204301,1.78928205 0.314548387,2.63766667 L0.315075269,2.63871795 C0.772408602,3.48710256 1.83670968,3.80774359 2.68709677,3.3530641 C3.0985914,3.13282051 3.40049462,2.76539744 3.53537634,2.31860256 C3.67131183,1.87128205 3.62389247,1.39873077 3.40312903,0.986628205 C2.94632258,0.137717949 1.88202151,-0.182397436 1.03163441,0.272807692 L1.03163441,0.272807692 Z M1.16124731,1.81503846 C1.16124731,1.56588462 1.29507527,1.32461538 1.52953763,1.19898718 C1.86832258,1.01764103 2.29193548,1.14589744 2.47423656,1.48388462 C2.56222581,1.64788462 2.58066667,1.83658974 2.52692473,2.01478205 C2.4731828,2.19297436 2.35305376,2.33910256 2.18919355,2.42635897 C1.84988172,2.60770513 1.42574194,2.47997436 1.24291398,2.14146154 C1.1875914,2.03685897 1.16124731,1.92542308 1.16124731,1.81503846 L1.16124731,1.81503846 Z" id="Shape"></path>
                                </g>
                            </g>
                        </g>
                    </g>
                </g>
            </g>
        </g>
    </g>
</svg>