<?xml version="1.0" encoding="UTF-8" standalone="no"?>
<svg width="59px" height="82px" viewBox="0 0 59 82" version="1.1" xmlns="http://www.w3.org/2000/svg" xmlns:xlink="http://www.w3.org/1999/xlink" xmlns:sketch="http://www.bohemiancoding.com/sketch/ns">
    <!-- Generator: Sketch 3.3.3 (12081) - http://www.bohemiancoding.com/sketch -->
    <title>heart</title>
    <desc>Created with Sketch.</desc>
    <defs></defs>
    <g id="Design" stroke="none" stroke-width="1" fill="none" fill-rule="evenodd" sketch:type="MSPage">
        <g id="Mobile---Menu" sketch:type="MSArtboardGroup" transform="translate(-13.000000, 0.000000)" fill="#FFFFFF">
            <g id="heart" sketch:type="MSLayerGroup" transform="translate(42.473668, 41.583386) rotate(132.000000) translate(-42.473668, -41.583386) translate(13.973668, 2.583386)">
                <path d="M30.4817784,13.5584772 C30.4132804,11.2820769 29.632925,9.44977731 28.7034405,7.8287788 C27.7377104,6.44871878 26.4955308,5.06927301 24.4946511,5.00001663 C22.6998798,5.27581365 22.5604264,7.91047369 21.870685,8.65709123 C21.0436404,9.1409645 19.8699588,9.07232237 18.8355771,9.2780952 C17.247375,9.69317278 16.0743078,10.9341058 15.6604015,12.5220885 C15.3495495,14.2926562 16.5877359,15.6473785 17.9673723,16.2677683 C20.2185923,17.4391378 24.0801305,16.8689628 25.9429391,18.9388225 C26.7850348,19.7348869 26.9464506,20.6751459 26.5333123,21.5026905 C26.3265895,22.1937187 26.771366,22.3893564 27.2545382,22.4586128 C27.8763959,22.2520721 27.7137514,21.8520436 27.9210885,21.2995282 C27.9161739,21.2789509 27.9244674,21.3201055 27.9210885,21.2995282 C28.5076221,20.0722622 28.929054,19.4343664 29.2136433,18.7966242 C30.0663363,16.671943 30.4913006,15.8219783 30.4817784,13.5584772 L30.4817784,13.5584772 Z" id="Shape" sketch:type="MSShapeGroup"></path>
                <path d="M56.6102453,31.2954809 C56.2821919,29.9366124 54.5044683,29.3464744 53.0240815,28.8790322 C50.097864,27.9978945 51.6648716,26.858773 50.9964783,25.6057086 C50.2923001,24.2846163 48.8137562,23.6573163 47.1768683,23.4226739 L47.0203672,23.4398728 C44.2911967,23.2833933 42.6257423,24.7898347 41.421037,26.5364467 C40.5213476,27.7220975 40.0489262,28.7214778 39.8286881,29.8305012 C39.4992525,31.2030367 39.2390829,32.3593572 39.3037413,33.9453436 C39.3819151,34.9588515 39.8094903,38.1719789 39.8664696,39.2274093 C39.9523225,39.9684986 40.3789761,41.593029 39.6668116,42.1627433 C39.0394249,42.3617595 38.3266461,42.9882916 38.3681135,43.3772637 C38.9913535,44.0004176 39.2968301,44.0140846 40.3172358,43.5337432 C42.6641381,42.4092101 44.1862995,40.8872589 47.1220391,39.6911659 C48.5264024,39.3008118 51.0597545,38.1882565 52.4000736,37.7658079 C55.6030477,36.7558319 57.2333316,34.4907951 56.6102453,31.2954809 L56.6102453,31.2954809 Z" id="Shape" sketch:type="MSShapeGroup"></path>
                <g id="Group" transform="translate(0.314385, 0.314385)" sketch:type="MSShapeGroup">
                    <path d="M44.0552926,0.0998151789 L44.9105965,0.0998151789 C46.4217,0.171374984 47.3132495,0.61639712 48.2100208,1.21697737 C49.0963485,1.81049378 49.864878,2.50536099 50.3397567,3.48600673 C50.4681521,3.75136154 50.5965475,4.02685144 50.6366327,4.30633394 C50.6811718,4.61683593 50.6077591,4.95743603 50.514227,5.24889635 C50.3391424,5.79465504 50.0178467,6.17395272 49.5543331,6.48814019 C49.111246,6.78866066 48.548825,7.05247985 47.8782814,6.97692744 C47.2203317,6.90275708 46.7543608,6.61329307 46.5864946,6.03436503 C46.5599247,5.94268863 46.5433377,5.8708217 46.5514776,5.79004818 C46.5889519,5.42917792 46.651153,5.16336242 46.6213579,4.86499182 C46.5626892,4.27869281 46.2893114,3.82199998 46.0627764,3.36392509 C45.7164467,2.66383678 45.2987008,2.10026492 44.3518615,2.0199521 C43.791437,1.97234793 43.1566783,2.12621687 42.6409465,2.31678708 C40.7008856,3.0333065 39.8610936,5.05540847 39.2019152,7.04695163 C38.5209281,9.10391212 37.9758619,11.2608414 37.4910003,13.5226533 C36.5142122,18.0814429 36.1173536,22.9218648 35.2216574,27.6085713 C35.109081,28.1980952 35.0636205,28.8189456 34.9946617,29.4239791 C34.787171,31.2444544 34.5517282,33.0715329 34.3313366,34.8872478 C34.2565416,35.5036449 34.1914224,36.1080642 34.1043408,36.702502 C34.0203309,37.2752875 33.8738127,37.8288779 33.7552466,38.3955209 C33.5153499,39.5412456 33.342569,40.6963376 33.1616482,41.8865952 C32.8011888,44.2563611 32.3816,46.5754516 31.8174895,48.7111893 C31.2435497,50.8847032 30.8347117,53.154654 30.3162154,55.3961958 C29.7998692,57.6292917 29.307482,59.8591628 28.7277061,61.9769337 C27.5584784,66.2476413 25.888263,70.0175839 23.0715502,72.6591542 C21.6949855,73.9498412 20.0966469,75.095873 18.1312448,75.9056045 C17.1636717,76.3044045 16.1381978,76.6365587 15.0588163,76.9181911 C13.9703733,77.2021269 12.8005314,77.4166527 11.5323963,77.4766954 C8.78602449,77.6064551 6.54632314,77.0332089 4.58445349,76.2549576 C3.63423528,75.8779633 2.6999897,75.4040716 1.86111918,74.8934786 C1.46856095,74.6545364 1.07385256,74.3018049 0.761311088,73.9507626 C0.438633138,73.5885103 0.186142634,73.1146185 0.115340857,72.554425 L0.115340857,72.1004963 C0.129009747,72.0968108 0.135613817,72.0859079 0.132849322,72.0656378 C0.0522182308,70.6815851 0.972334173,69.9202257 1.72135862,69.7442438 C4.24180975,69.8944273 4.60104046,72.0306257 5.71912493,73.4446228 C6.31303052,74.1958472 7.05821538,74.6212135 8.16309171,74.8584665 C9.22373613,75.0860451 10.2105071,75.3770447 11.4450075,75.4344768 C13.9596225,75.5513374 16.0664745,74.9463038 17.8343688,74.1428684 C19.6366657,73.3236161 21.0986226,72.2228851 22.3034814,70.896111 C24.7006054,68.2566905 26.2774424,64.4744631 27.3658853,60.5457376 C28.2065988,57.5112026 28.800658,54.2755017 29.4782663,51.085255 C29.7021904,50.0301318 29.9812508,48.9931288 30.2113182,47.9607328 C30.4484504,46.8967029 30.5739277,45.7968932 30.7875617,44.6966228 C31.4137197,41.467525 31.9088714,38.0894723 32.3585625,34.6951419 C32.6569743,32.4436186 33.0134406,30.1784283 33.2837467,27.9052528 C33.5568173,25.6096572 33.7793591,23.3053086 34.1390506,21.045493 C34.3089134,19.9786991 34.541131,18.9066841 34.7850208,17.8337477 C35.0249175,16.7784709 35.2340976,15.7069165 35.4483459,14.6396619 C35.8783784,12.4971675 36.3495712,10.3740219 36.8623849,8.33840648 C37.2394313,6.84163948 37.6849756,5.25826362 38.2240521,3.92242941 C38.4120377,3.45652286 38.5971053,2.98124905 38.8350054,2.5958089 C39.837749,0.972814089 41.680131,0.244931093 44.0552926,0.0998151789 L44.0552926,0.0998151789 Z" id="Shape"></path>
                    <path d="M28.2042951,24.1174971 C29.8949371,24.2609238 29.4179082,26.6695409 29.6882143,28.3241694 C29.8909439,29.566638 29.9691177,30.7525959 30.054817,32.1642897 C30.1752261,34.1530687 30.2292874,36.0960863 30.2292874,38.2907918 C30.229441,39.0145286 30.2914885,39.763296 30.1595607,40.3156579 C30.0672573,40.7017123 29.7293746,41.2037058 29.3914919,41.2757263 C28.9786607,41.3635637 28.6074506,41.1842035 28.4486457,40.9613853 C28.1711212,40.5721061 28.3254721,39.7120064 28.4312908,39.1461311 C28.5447887,38.5389477 28.5911708,37.8353274 28.5708978,37.1912892 C28.4741405,34.1076144 28.8498046,30.5789175 28.2566669,27.9402649 C28.1890904,27.6395908 28.1528448,27.3410667 28.1169064,27.0152085 C28.0335108,26.254924 27.7479999,25.551918 27.8899106,24.8158962 C27.937675,24.5685081 28.0815823,24.2793512 28.2042951,24.1174971 L28.2042951,24.1174971 Z" id="Shape"></path>
                    <path d="M16.141423,26.5437737 C18.5812431,26.38668 20.513932,27.48219 21.9196774,28.5858387 C22.2160927,28.8186384 22.4612112,29.0643373 22.7227631,29.3364489 C23.2361912,29.870844 23.7752676,30.3717626 24.1891739,30.9772569 C24.5987798,31.5761479 24.8991883,32.3573169 25.2366102,33.0543339 C25.4096983,33.4118258 25.5889296,33.7607183 25.7079565,34.136484 C27.2870972,39.1277037 28.0712922,45.7557387 27.3141278,52.2369686 C27.2124559,53.1067427 27.0768421,54.0691146 26.8951533,54.9424206 C26.7252905,55.7589088 26.4305647,56.5555875 26.1968113,57.3513448 C25.7911985,58.7329404 25.4030942,60.1593761 24.7477554,61.3660648 C24.6468513,61.5517211 24.5539336,61.7871313 24.4336781,61.81984 C24.4086441,61.8265967 24.3723985,61.8195329 24.3462893,61.81984 C23.6676059,61.8250611 23.2785801,61.2869805 23.3163615,60.6329607 C23.3307983,60.3834228 23.4773165,60.2051375 23.5782206,59.9347152 C24.1765801,58.3310692 24.6858614,56.5612692 25.0619863,54.7857876 C25.2805349,53.7544664 25.47021,52.6773839 25.6032129,51.5390301 C25.7343728,50.4174146 25.7893555,49.2454309 25.8650719,48.0132509 C25.9010104,47.427259 26.0556685,46.8549341 26.0221874,46.2677138 C25.9874776,45.6568449 26.0085185,45.0730028 25.9523071,44.469812 C25.4057051,38.6040579 24.684172,33.1931538 20.8373778,30.6283644 C20.0657767,30.1137788 19.2106263,29.7357096 18.2362956,29.4414852 C17.1813337,29.122998 16.0317648,29.2292627 15.1463586,29.7208141 C14.3509521,30.1623043 13.7401523,30.8444259 13.2434648,31.6059389 C12.738791,32.3795833 12.4709422,33.4422311 12.4053622,34.5557078 C12.3010793,36.3328787 13.1222878,37.7035714 14.7971108,37.8196641 C15.2647711,37.8522192 16.0035055,37.7961692 16.4730088,37.6452179 C17.148467,37.4280815 17.4332099,36.8126058 17.6600521,36.0742806 C17.6990621,35.9471314 17.7953587,35.7762171 17.7823042,35.6205054 C17.7600346,35.359911 17.3419816,35.0768966 17.118979,34.9222598 C16.7052264,34.6355599 16.28103,34.3866362 16.1761328,33.8052512 C16.1060989,33.4165863 16.2100747,33.0305319 16.3158934,32.7404536 C16.3986746,32.5134892 16.6345782,32.3514815 16.7872397,32.2343139 C16.9781434,32.0876623 17.1933132,31.9668092 17.4157015,31.9026203 C19.0243301,31.4387101 19.4603524,33.1942288 19.6385087,34.5292952 C19.6796689,34.837033 19.4339361,36.9325375 19.2835783,37.4357596 C18.9616683,38.5134564 18.3811244,39.3472971 17.4854282,39.8445302 C17.0017952,40.1129563 16.5097152,40.229049 15.8443935,40.2983054 C15.1655565,40.3690974 14.5341766,40.3861427 13.9414997,40.2284348 C12.2866425,39.788173 11.4456218,38.552154 10.8690711,36.9994905 C10.4798917,35.9508169 10.265797,34.7038949 10.3279981,33.3688285 C10.3587147,32.7108162 10.4571615,32.0752238 10.5725023,31.5012098 C10.6910684,30.9098432 10.9189856,30.4657425 11.1834556,30.0176491 C11.693812,29.1523283 12.3410109,28.3968041 13.1560761,27.7833247 C13.932899,27.1984077 15.0262566,26.6154871 16.141423,26.5437737 L16.141423,26.5437737 Z" id="Shape"></path>
                    <path d="M31.8351515,67.9987067 C31.8743152,68.5472295 30.8830903,68.6126468 30.7004801,68.5920695 C30.3762663,68.5559825 30.0604996,68.2101613 29.9672747,67.876625 C29.7954153,67.2603815 30.0165749,66.2560872 30.1420522,65.7121713 C30.4619657,64.3230511 30.6218456,63.0170079 30.9624928,61.6452402 C31.1239085,60.9956737 31.3641124,60.3940186 31.5560912,59.81248 C33.1776208,54.8960449 35.1692856,50.9332288 38.8660292,48.0739078 C40.4497774,46.8490988 42.820485,45.8813522 44.9282586,45.1330455 C45.2338888,45.0244773 45.9908996,44.8643123 46.1328103,44.8713762 C46.3419904,44.8816648 46.8188657,44.808723 47.0231311,44.7841531 C47.5298015,44.7233426 48.1364545,44.8061124 48.6291489,44.9062347 C49.1047955,45.0029787 49.5503399,45.1726645 49.9035809,45.3600099 C50.6397044,45.7505176 51.3145482,46.3177749 51.736748,46.9833118 C52.6471882,48.4189612 53.2618275,50.1469923 53.0997974,52.380856 C52.9557365,54.3694815 51.8258261,56.2418607 50.6194314,57.2816277 C50.0155429,57.8020487 49.198174,58.23755 48.1928195,58.3114132 C47.0622948,58.3944902 46.3455228,57.9582211 45.5220106,57.5259446 C45.0451353,56.9576123 44.60727,56.5362387 44.3523222,55.832772 C44.1161115,55.1810557 44.0749513,54.1571055 44.2997968,53.3367783 C44.487936,52.6511248 44.8774226,51.9823631 45.4171134,51.5912412 C45.9869064,51.1786206 47.0180629,51.0081669 47.3547169,51.783347 C47.5397844,52.2093275 47.390041,52.7420334 47.2324648,53.1099675 C47.1859291,53.2193035 46.499413,54.1594089 46.4995666,54.7507755 C46.4995666,55.1230093 46.6803338,55.5344014 46.8311523,55.8329256 C46.9971756,56.1617014 47.2204853,56.4195317 47.5818662,56.4788066 C47.938486,56.5373136 48.4858559,56.287315 48.7689094,56.1297606 C49.486603,55.7303463 49.9358333,55.2544582 50.3750808,54.5938353 C50.5884076,54.2733518 50.8270757,53.9289126 50.9510172,53.5989083 C51.2426713,52.8228069 51.1881494,51.7805829 51.0208974,50.9980319 C50.8430483,50.166034 50.5309676,49.5023398 50.1829484,48.9209548 C49.8255607,48.3232922 49.3284124,47.7936575 48.6818279,47.5071112 C47.9979226,47.2038266 47.0165271,47.2629479 46.1329639,47.384876 C44.4754958,47.6136831 42.5160835,48.3497048 41.3009345,49.1353271 C38.9328378,50.6666455 37.7265966,52.5635946 36.0775756,54.8204925 C35.2606675,55.9388832 34.4959776,57.1578569 33.8954679,58.4686605 C33.2737638,59.8255327 32.899482,61.3402665 32.4640741,62.8672851 C32.0268232,64.3979893 31.6960053,66.0292764 31.8351515,67.9987067 L31.8351515,67.9987067 Z" id="Shape"></path>
                </g>
            </g>
        </g>
    </g>
</svg>