<?xml version="1.0" encoding="UTF-8" standalone="no"?>
<svg width="18px" height="23px" viewBox="0 0 18 23" version="1.1" xmlns="http://www.w3.org/2000/svg" xmlns:xlink="http://www.w3.org/1999/xlink" xmlns:sketch="http://www.bohemiancoding.com/sketch/ns">
    <!-- Generator: Sketch 3.3.3 (12081) - http://www.bohemiancoding.com/sketch -->
    <title>leaf</title>
    <desc>Created with Sketch.</desc>
    <defs></defs>
    <g id="Design" stroke="none" stroke-width="1" fill="none" fill-rule="evenodd" sketch:type="MSPage">
        <g id="Mobile---Home" sketch:type="MSArtboardGroup" transform="translate(-274.000000, -315.000000)" fill="#CF919A">
            <g id="header" sketch:type="MSLayerGroup" transform="translate(10.000000, 298.000000)">
                <g id="leaf" transform="translate(273.249188, 27.941841) rotate(-165.000000) translate(-273.249188, -27.941841) translate(267.249188, 14.441841)" sketch:type="MSShapeGroup">
                    <g id="Group" transform="translate(-0.000000, 0.000000)">
                        <path d="M10.7612121,0.479515152 C10.7612121,0.479515152 11.9199242,5.23668182 9.80078788,9.2160303 C7.682,13.1946818 4.05009091,15.9707121 2.46134848,15.1249394 C-0.208393939,13.7034697 -0.156469697,10.6416818 1.55145455,7.43422727 C3.67059091,3.45522727 10.7612121,0.479515152 10.7612121,0.479515152 L10.7612121,0.479515152 Z" id="Shape"></path>
                        <path d="M2.29756061,15.432303 C4.13477273,16.4108485 7.93081818,13.4689394 10.1085,9.3794697 C12.2649242,5.32972727 11.1480303,0.596257576 11.0999394,0.396924242 L11.0030606,-4.26325641e-14 L10.6263485,0.158212121 C10.3318788,0.281575758 3.39668182,3.22836364 1.24409091,7.27009091 C-0.730424242,10.9779697 -0.336636364,14.0296515 2.29756061,15.432303 L2.29756061,15.432303 Z M2.62548485,14.8172273 C-0.616469697,13.0908333 1.00956061,9.19372727 1.85951515,7.59801515 C3.61657576,4.29786364 9.01390909,1.65634848 10.5040303,0.975757576 C10.717303,2.19057576 11.1724242,5.89915152 9.49342424,9.05224242 C7.42481818,12.9364545 3.92951515,15.5117576 2.62548485,14.8172273 L2.62548485,14.8172273 Z" id="Shape"></path>
                    </g>
                    <path d="M0.548863636,25.7540758 C0.575348485,25.9443485 0.751681818,26.0774697 0.94230303,26.0513333 C1.13292424,26.0241515 1.26604545,25.8481667 1.23956061,25.6575455 C0.161,17.9316364 3.88037879,11.246303 5.46877273,8.39081818 L5.56565152,8.21657576 C7.19690909,5.27954545 9.60284848,2.76627273 10.5089091,1.81978788 C10.8441515,1.46990909 10.925,1.38418182 10.9689091,1.30159091 C11.0511515,1.14721212 10.9873788,0.980287879 10.845197,0.878530303 C10.7033636,0.776772727 10.4890455,0.820333333 10.3695152,0.948227273 L10.0053485,1.33818182 C9.08256061,2.30209091 6.63062121,4.86275758 4.95615152,7.87819697 L4.85962121,8.05243939 C3.23707576,10.9682121 -0.561757576,17.7967727 0.548863636,25.7540758 L0.548863636,25.7540758 Z" id="Shape"></path>
                </g>
            </g>
        </g>
    </g>
</svg>