<?xml version="1.0" encoding="UTF-8" standalone="no"?>
<svg width="35px" height="35px" viewBox="0 0 35 35" version="1.1" xmlns="http://www.w3.org/2000/svg" xmlns:xlink="http://www.w3.org/1999/xlink" xmlns:sketch="http://www.bohemiancoding.com/sketch/ns">
    <!-- Generator: Sketch 3.3.3 (12081) - http://www.bohemiancoding.com/sketch -->
    <title>loading</title>
    <desc>Created with Sketch.</desc>
    <defs></defs>
    <g id="Design" stroke="none" stroke-width="1" fill="none" fill-rule="evenodd" sketch:type="MSPage">
        <g id="Mobile---Home" sketch:type="MSArtboardGroup" transform="translate(-170.000000, -2781.000000)" fill="#CF919A">
            <g id="loading" sketch:type="MSLayerGroup" transform="translate(170.000000, 2781.000000)">
                <path d="M17.3129093,0.00233291212 C17.2891793,0.00438302805 17.2635598,0.011276008 17.2399687,0.0144896717 C17.1420479,0.0280289952 17.0541131,0.0550862464 16.9603632,0.0874302292 C16.9548937,0.0894803452 16.9533298,0.0853762231 16.9482065,0.0874302292 C16.9376758,0.0908496826 16.9455612,0.0853801133 16.9360497,0.0874302292 C16.8788834,0.10855965 16.8199439,0.145106954 16.7658551,0.172527546 C16.7520411,0.178681784 16.7429938,0.178461601 16.7293848,0.184684306 C16.7252807,0.186734422 16.721056,0.194789783 16.7172281,0.196841066 C15.982479,0.537034309 15.5294776,1.11889483 15.2584169,1.6313387 C14.9777148,2.16217712 14.8124292,2.65044394 14.7113627,2.88348493 C14.6990542,2.91145132 14.6976499,2.95208757 14.6870492,2.98073901 C14.6829627,2.98475687 14.6789103,2.98880927 14.6748924,2.99289577 C14.6603977,3.0342661 14.6523723,3.07316151 14.6384222,3.11446337 C14.1170205,2.52256144 13.5123281,1.96641634 12.7541244,1.5097711 L12.7541244,1.49761434 C12.7424306,1.4896823 12.7295542,1.49270612 12.7176542,1.48545758 C12.71355,1.4827228 12.7093953,1.47569405 12.7054974,1.47330082 C12.6935171,1.46493474 12.6813575,1.45682835 12.6690271,1.4489873 C12.1613702,1.17163579 11.5460973,1.10382181 10.9913943,1.26663591 C10.4033215,1.43950196 9.92803844,1.85808066 9.69062101,2.47015511 C9.67305113,2.49772129 9.6568232,2.52612016 9.64199398,2.55525243 C9.25831069,3.54622362 9.27556007,4.49018219 9.35023175,5.30268009 C8.65644256,4.96337579 7.89424719,4.68298684 7.04044742,4.548961 L7.02829066,4.548961 C7.01269889,4.54485688 6.99552771,4.53988136 6.97966363,4.53680424 C6.9675847,4.53252211 6.95542576,4.52846913 6.94319335,4.52464748 C6.92293662,4.52404067 6.90266627,4.52404067 6.88240955,4.52464748 C6.25494959,4.45770322 5.62938141,4.67364345 5.18046321,5.08385842 C4.73099766,5.49455188 4.48290134,6.07008673 4.52399819,6.7128642 C4.52280858,6.7412175 4.52280858,6.76960822 4.52399819,6.79796152 C4.58225844,7.79686476 4.92075592,8.63739829 5.28987404,9.35088104 C4.50739536,9.30280951 3.68493086,9.33505196 2.83420861,9.54538919 C2.81629441,9.54881253 2.79120246,9.55330567 2.77342481,9.55754595 C2.76119239,9.5613676 2.74903345,9.56542058 2.73695453,9.56970271 C2.12412781,9.74858641 1.62144564,10.1902393 1.3632407,10.7489084 C1.10414681,11.3094241 1.10252913,11.9421502 1.39971098,12.5237953 C1.40689137,12.5484071 1.4150017,12.5727381 1.42402449,12.5967358 C1.85981375,13.4750156 2.4785201,14.1197895 3.08950056,14.6390715 C2.33334817,14.89967 1.56976362,15.2553301 0.852656794,15.7939636 C0.840326439,15.8018047 0.828166845,15.8099111 0.816186515,15.8182771 C0.814136399,15.8203389 0.818921299,15.8283838 0.816186515,15.8304339 C0.804288451,15.8404161 0.791272354,15.8444891 0.779716236,15.8547474 C0.312130033,16.2501237 0.0262322631,16.8363176 0.00168362245,17.4351262 C-0.0219759603,18.0120529 0.204473622,18.5520134 0.633835121,18.9668779 C0.673551715,19.0197446 0.718339322,19.0686038 0.767559476,19.112759 C1.51413837,19.7666822 2.32473262,20.1196242 3.08950056,20.3649052 C2.52201057,20.8668187 1.98992885,21.4564889 1.54559209,22.1762624 C1.54148914,22.1831013 1.53740135,22.1819926 1.53343533,22.1884192 L1.53343533,22.2005759 C1.51804974,22.2258075 1.49998849,22.2480106 1.48480829,22.2735165 C1.47656708,22.2814831 1.46846141,22.2895888 1.46049477,22.29783 C1.1622872,22.8216249 1.09953335,23.4613027 1.27814338,24.0362466 C1.46249735,24.6297213 1.88195006,25.0975664 2.49381934,25.3248631 C2.5255937,25.3386717 2.55805421,25.3508444 2.59107341,25.3613334 C3.55790615,25.7184169 4.47546179,25.7246902 5.28987404,25.6530956 C4.94051795,26.3677408 4.65371607,27.1538482 4.52399819,28.0358205 C4.52397392,28.0398727 4.52397392,28.0439251 4.52399819,28.0479773 C4.52263663,28.0604919 4.51320299,28.0719329 4.51184143,28.0844476 C4.51184143,28.0899171 4.51254166,28.1034977 4.51184143,28.1087611 C4.45371773,28.6798755 4.62701049,29.2707427 4.99811181,29.7256101 C5.382684,30.1968205 5.94171599,30.478592 6.59064732,30.4671724 C6.63113345,30.4696013 6.67172878,30.4696013 6.71221492,30.4671724 C6.79516058,30.4644493 6.84681339,30.4692342 6.85809603,30.4671724 C7.83757918,30.4057666 8.64408079,30.0618672 9.33807499,29.7012966 C9.28884108,30.4946479 9.32564981,31.3295123 9.5447399,32.1934323 C9.54610146,32.2007497 9.54267811,32.2104284 9.5447399,32.2177458 C9.54680169,32.2262925 9.55415409,32.2335088 9.55689666,32.2420593 C9.55679959,32.2501636 9.55679959,32.2582686 9.55689666,32.2663729 C9.73584883,32.8761905 10.1770229,33.3817449 10.7361023,33.6400867 C11.2924466,33.8969923 11.9307119,33.8970378 12.5109892,33.6036164 C12.539895,33.5927603 12.5682903,33.5805909 12.5960866,33.5671461 C13.4790847,33.1272543 14.1076674,32.513471 14.6262654,31.9016701 C14.8781795,32.633684 15.2146312,33.374231 15.7203738,34.07773 C15.7322196,34.0901938 15.7443803,34.1023544 15.756844,34.1142003 C15.7666239,34.1259603 15.783196,34.1389768 15.7933143,34.1506706 C16.1371316,34.5761346 16.6442673,34.8939746 17.2156552,34.9773302 C17.8541243,35.0704646 18.4806047,34.8775448 18.9540718,34.381649 C18.9840957,34.3549913 19.0125114,34.3265756 19.0391691,34.2965517 C19.7601735,33.5288432 20.1099634,32.6773106 20.3520992,31.9016701 C20.8779457,32.4974699 21.4940958,33.0607111 22.2607104,33.5185191 C22.2766994,33.5270563 22.2929143,33.5351637 22.3093375,33.5428326 C22.3249954,33.551037 22.3418942,33.5594864 22.3579645,33.5671461 C22.8494839,33.8207011 23.444971,33.8996076 23.999127,33.7373408 C24.5991664,33.5616027 25.0771017,33.1342181 25.3120571,32.5216648 C25.3258657,32.4898904 25.3380384,32.4574299 25.3485274,32.4244107 C25.7143634,31.4462269 25.7125677,30.5245835 25.6402896,29.7134533 C26.3485755,30.0593904 27.1272593,30.33807 27.998701,30.4671724 C28.0099163,30.4692342 28.0238898,30.4772791 28.0351712,30.4793292 C28.047327,30.4795476 28.0594857,30.4795476 28.0716415,30.4793292 C28.6623126,30.5494194 29.2769848,30.3753743 29.7371176,29.9930588 C30.2073021,29.6024689 30.4859432,29.035862 30.4665231,28.3883666 C30.4684902,28.3519228 30.4684902,28.3153995 30.4665231,28.2789557 C30.4277499,27.2452468 30.0787233,26.3908386 29.7006473,25.6652524 C30.4997424,25.7144182 31.3348655,25.6823964 32.2049398,25.4585875 C32.221363,25.4509186 32.2375778,25.4428112 32.2535668,25.434274 C32.254267,25.434274 32.2650233,25.4349742 32.2657236,25.434274 C32.2828169,25.4288044 32.2975996,25.4281353 32.3143506,25.4221172 C32.8880637,25.2365323 33.3606796,24.8148017 33.6151239,24.2793818 C33.8771583,23.7276874 33.897263,23.0948093 33.6151239,22.5166517 C33.6110717,22.5166274 33.6070193,22.5166274 33.6029671,22.5166517 C33.5924781,22.4836325 33.5803054,22.451172 33.5664968,22.4193976 C33.1288613,21.5296978 32.5032632,20.8857599 31.888864,20.3649052 C32.6431698,20.1058795 33.4075067,19.749809 34.1257078,19.2100131 C34.1380381,19.202172 34.1501977,19.1940656 34.1621781,19.1856995 L34.1743348,19.1856995 C34.1862348,19.1757835 34.1992474,19.1595538 34.2108051,19.1492293 C34.6478252,18.7786064 34.9391934,18.2424844 34.9888377,17.6661046 C35.0414222,17.05574 34.8216891,16.4557547 34.3445295,16.0127853 C34.3251356,15.9916748 34.3048562,15.9713953 34.2837457,15.9520015 C34.1618914,15.8389685 34.1279431,15.8162192 34.1986483,15.8790609 C33.4582239,15.2226761 32.6402296,14.8777882 31.888864,14.6390715 C32.48357,14.1141142 33.0487259,13.5083427 33.505713,12.742617 C33.5137151,12.7293515 33.522573,12.7074616 33.5300266,12.6939899 C33.80813,12.1898201 33.8866647,11.5673143 33.7245347,11.0042003 C33.5546089,10.4141443 33.1413491,9.94378468 32.5331723,9.70342706 C32.5016464,9.68549204 32.4691818,9.66925974 32.4359182,9.65480002 C31.4493238,9.27508276 30.5113674,9.27723519 29.7006473,9.35088104 C30.0600556,8.61613193 30.3506865,7.8113101 30.4665231,6.8952156 C30.4706838,6.88716572 30.4747364,6.87906049 30.4786799,6.87090208 C30.4807417,6.85312403 30.4772795,6.83991693 30.4786799,6.82227504 C30.4793801,6.8161208 30.4779797,6.80390958 30.4786799,6.79796152 C30.5227854,6.17474106 30.2982207,5.56581306 29.8708419,5.13248546 C29.4795001,4.73574134 28.9477004,4.5246327 28.3755605,4.53680424 C28.3148998,4.5313331 28.2538698,4.5313331 28.1932091,4.53680424 C27.1998447,4.59773158 26.3679804,4.93301462 25.6524464,5.30268009 C25.699492,4.54092081 25.6623138,3.73616083 25.470095,2.90779845 L25.470095,2.88348493 C25.470192,2.87538072 25.470192,2.86727563 25.470095,2.85917142 C25.4662733,2.846939 25.4622203,2.83478006 25.4579382,2.82270114 C25.3130296,2.27136622 24.9469575,1.76509561 24.4367704,1.46114406 C23.8836398,1.1315498 23.2287647,1.07376629 22.6010997,1.35173323 C22.5637043,1.36577522 22.5271705,1.38201248 22.4916889,1.40036026 C21.5327201,1.83471354 20.8864784,2.48912315 20.3642559,3.11446337 C20.1048202,2.35742207 19.7454138,1.58489462 19.197207,0.865462843 C19.1664358,0.825255051 19.1345532,0.792977473 19.0999529,0.756052007 C18.8609149,0.500172135 18.3760959,0.069741152 17.6411418,0.0144896717 C17.5811718,0.00710458613 17.5194439,0.00253804041 17.4587904,0.00233291212 C17.4541961,0.00262693064 17.4507378,0.00211093941 17.4466336,0.00233291212 C17.4038274,0.00438302805 17.3990538,-0.00382132586 17.325066,0.00233291212 L17.3129093,0.00233291212 L17.3129093,0.00233291212 Z M17.4952607,7.17482107 C23.1978569,7.17482107 27.8163496,11.7933818 27.8163496,17.49591 C27.8163496,23.1985062 23.1978569,27.8169988 17.4952607,27.8169988 C11.7926644,27.8169988 7.17417178,23.1985062 7.17417178,17.49591 C7.17417178,11.7933818 11.7926644,7.17482107 17.4952607,7.17482107 L17.4952607,7.17482107 Z M13.9454869,11.478314 C11.5231061,11.478314 9.86081565,13.5095895 9.86081565,15.7818069 C9.86081565,18.0817179 11.940843,22.4961276 17.3858498,25.7989768 C17.4640775,25.8464329 17.5375903,25.8395947 17.6046715,25.7989768 C23.0557641,22.5061113 25.1297057,18.0817179 25.1297057,15.7818069 C25.1297057,13.5095895 23.4674837,11.478314 21.0450345,11.478314 C19.1577312,11.478314 17.9488973,13.0514092 17.4952607,13.6422172 C17.0415556,13.0514092 15.8328586,11.478314 13.9454869,11.478314 L13.9454869,11.478314 Z" id="Shape" sketch:type="MSShapeGroup"></path>
            </g>
        </g>
    </g>
</svg>