<?xml version="1.0" encoding="UTF-8" standalone="no"?>
<svg width="175px" height="36px" viewBox="0 0 175 36" version="1.1" xmlns="http://www.w3.org/2000/svg" xmlns:xlink="http://www.w3.org/1999/xlink" xmlns:sketch="http://www.bohemiancoding.com/sketch/ns">
    <!-- Generator: Sketch 3.3.3 (12081) - http://www.bohemiancoding.com/sketch -->
    <title>logo_white_small</title>
    <desc>Created with Sketch.</desc>
    <defs></defs>
    <g id="Design" stroke="none" stroke-width="1" fill="none" fill-rule="evenodd" sketch:type="MSPage">
        <g id="Mobile---Home" sketch:type="MSArtboardGroup" transform="translate(-10.000000, -6.000000)" fill="#F7F2F2">
            <g id="nav" sketch:type="MSLayerGroup">
                <g id="logo_white_small" transform="translate(10.000000, 6.000000)" sketch:type="MSShapeGroup">
                    <path d="M20.6764716,26.5183226 C20.4530714,26.4784584 20.3211965,26.8814238 20.0549862,26.6412775 C21.0927634,25.5495725 22.1600648,25.7320837 23.2249059,27.1811264 C24.5362744,25.4064453 26.752069,25.5668631 27.70521,27.6119488 C28.004389,27.4659399 28.052612,27.1446241 28.2248367,26.9188866 C28.8684652,26.0778944 29.7896217,25.7743495 30.8347799,26.0673279 C31.7923496,26.3358115 32.3257543,27.0591321 32.3848028,28.1349874 C32.4295812,28.9534059 32.1884665,29.7295587 32.0433057,30.5201203 C31.913399,31.2295124 31.7736509,31.9369833 31.6486649,32.5911418 C32.1176083,32.9787379 32.3493737,32.3980642 32.6874263,32.5277432 C32.7430303,32.635809 32.7395858,32.7501187 32.6460923,32.8236034 C31.9650664,33.3615311 31.190055,33.362972 30.417996,33.1079366 C29.7758437,32.8956473 29.4727281,32.2597399 29.5952537,31.3774425 C29.7325415,30.3904413 29.952005,29.4149671 30.1198011,28.4318082 C30.1837703,28.0552588 30.2497078,27.6691036 30.2315012,27.2911134 C30.1995166,26.6081373 29.7192556,26.3535823 29.0928495,26.6542454 C28.5623972,26.9088005 28.3084887,27.3905339 28.0959142,27.888117 C27.4857465,29.3121845 27.1659005,30.8058944 27.0074537,32.3361065 C26.9730088,32.5277432 26.7963554,32.7991085 27.2362666,32.726104 C27.5177311,32.7827785 27.6879875,32.3894189 27.9945476,32.5469549 C27.5029689,33.1881455 26.7294337,33.417245 25.8791355,33.1737367 C25.1882682,32.9763364 24.8192151,32.5022877 24.8443107,31.693475 C24.8792478,30.578716 25.2113955,29.5038212 25.3880489,28.4073133 C25.4490657,28.0302836 25.5218921,27.645089 25.500241,27.2680593 C25.4628437,26.6033344 24.9525663,26.3526217 24.3379699,26.6638513 C23.816867,26.9280122 23.5816572,27.4188712 23.343495,27.904447 C22.8440432,28.9217066 22.7185651,30.0345445 22.4828632,31.1185648 C22.4661328,31.1934905 22.4641646,31.2708176 22.4513707,31.3467038 C22.1226675,33.3178245 22.1226675,33.3178245 19.9226192,32.996989 C20.2724815,30.9336522 20.6223438,28.8707956 20.9722061,26.8084193 C21.069144,26.5216847 21.0450325,26.3526217 20.6764716,26.5183226" id="Fill-1"></path>
                    <path d="M153.011516,27.7858147 C153.587731,26.8319537 154.042896,26.1605047 154.960116,26.0096928 C156.69811,25.7239187 157.940097,26.8919902 157.718665,28.6685924 C157.605489,29.5792271 157.370279,30.4754531 157.191657,31.3784031 C157.103576,31.8250752 156.985971,32.2698261 157.092751,32.7184193 C157.318119,32.852421 157.480503,32.7169785 157.643378,32.6247623 C157.779189,32.5483958 157.901223,32.4504161 158.061638,32.5623243 C157.545948,33.193909 156.744857,33.4196465 155.914733,33.1674929 C155.216485,32.9552036 154.936005,32.5282235 154.929116,31.662256 C154.922719,30.8491207 155.1535,30.0700861 155.290296,29.2776034 C155.394615,28.6733954 155.510251,28.0701479 155.591443,27.4625778 C155.639666,27.0999569 155.536331,26.7661536 155.160881,26.5970906 C154.793304,26.4323503 154.451315,26.5601081 154.183137,26.8002544 C153.956292,27.0038984 153.76094,27.2565323 153.607414,27.5192523 C152.981992,28.5883836 152.338363,31.332295 152.362475,32.7208208 C152.736449,32.9696124 152.952468,32.3702072 153.320044,32.5483958 C152.850117,33.1838228 152.043121,33.4186859 151.198727,33.1708549 C150.528527,32.9748956 150.234269,32.5724104 150.199332,31.7914547 C150.161934,30.9379748 150.411906,30.1214774 150.551162,29.2905713 C150.652037,28.685883 150.776039,28.0840764 150.856246,27.4765063 C150.903485,27.118208 150.810484,26.7791215 150.437986,26.6023738 C150.070409,26.4275473 149.742198,26.5745169 149.454337,26.7896879 C149.033616,27.1037993 148.822026,27.566321 148.617324,28.0230792 C148.075062,29.2314953 147.909727,30.5354896 147.703549,31.8169102 C147.446688,33.4129224 147.440783,33.0805599 146.101367,33.118503 C145.871078,33.1252271 145.640788,33.1194636 145.225481,33.1194636 C145.623566,30.8668915 146.005413,28.7074961 146.379879,26.5903665 C145.970476,26.2397529 145.722964,26.8795026 145.376054,26.6427184 C146.429086,25.575028 147.505245,25.729202 148.5568,27.1729614 C149.179761,26.4654905 149.85193,25.8641642 150.917263,25.9789541 C151.961437,26.0918228 152.621796,26.6307111 153.011516,27.7858147" id="Fill-2"></path>
                    <path d="M46.5288841,8.01697278 C47.8623958,9.49339212 49.5551192,10.5433117 51.132698,11.7310752 C51.5529264,12.0480683 51.8122476,11.9006184 52.1375064,11.6278123 C52.9405659,10.9530012 53.616179,10.1614791 54.325745,9.40069565 C54.5092874,9.4813848 54.5225733,9.64852662 54.5457006,9.81134579 C54.0275501,10.8545412 53.1693788,11.638859 52.350573,12.5129915 C52.8505169,13.2454376 53.6963865,13.669536 54.1038211,14.4557749 C54.0236136,14.5388655 53.943406,14.6214758 53.8627064,14.7045664 C53.4001599,14.2919951 52.9198989,13.8962341 52.4794956,13.4615693 C52.058283,13.0461162 51.7182621,13.0048111 51.1804288,13.3621487 C47.9042218,15.5359529 44.2304217,16.3130662 40.3263324,16.0719594 C38.4392411,15.9557286 36.6244843,15.412998 34.8579503,14.7631621 C32.2539119,13.8044982 29.6695564,12.7944429 27.065026,11.8372198 C25.1429977,11.1302292 23.1663495,10.6336067 21.0878427,10.7844185 C19.1643382,10.9237034 17.4179791,11.5125421 16.1061185,12.9731117 C15.698684,13.4265079 15.3995049,13.9721203 15.0511189,14.4759472 C14.9108787,14.4879545 14.7578447,14.7208964 14.6333508,14.4533734 C15.810384,11.2565461 19.0147487,9.55054693 22.1630173,9.78012678 C24.83939,9.97560585 27.2839975,10.8627062 29.7305732,11.8093629 C31.4798847,12.4870557 33.2257516,13.1743543 34.9868728,13.8227493 C37.9299479,14.9072499 40.9281349,15.2847599 44.1098644,15.035488 C46.7114424,14.8313637 48.8588391,13.8784632 51.0884116,12.4438293 C49.4035614,11.0677911 47.5036762,10.0188322 46.2454514,8.29170012 C46.2951505,8.15577733 46.3778184,8.05299472 46.5288841,8.01697278" id="Fill-3"></path>
                    <path d="M106.563975,33.1165819 C106.217065,33.1646111 105.870647,33.2539456 105.524229,33.2539456 C104.209416,33.252985 103.257259,32.5214994 103.062891,31.2626526 C102.847364,29.8645209 103.126369,28.539874 103.963381,27.3530711 C104.475134,26.627349 105.221114,26.2589646 106.052713,26.0130549 C106.225922,26.1374506 106.481799,26.1777952 106.514768,26.4453182 C105.283607,28.116256 105.090715,30.040308 105.176335,32.0008623 C105.212749,32.8461772 105.871139,33.0944884 106.582673,32.5824965 C107.33505,32.0407265 107.747405,31.2621723 107.930947,30.3741113 C108.069711,29.702182 108.170094,29.0220878 108.320175,28.3525599 C108.416129,27.9226981 108.39251,27.5216538 108.20011,27.1268533 C108.237507,27.0312751 108.273921,26.8526063 108.312794,26.8526063 C108.771404,26.8468427 108.748769,26.5745169 108.678895,26.2671296 C108.953962,24.7729395 109.22903,23.278269 109.497208,21.8210614 C109.042535,21.6015677 108.842754,22.0722544 108.516511,21.935371 C108.482559,21.8119358 108.527829,21.7086729 108.624275,21.636629 C109.199998,21.2077278 109.82542,21.1059057 110.514319,21.3470126 C111.13482,21.5641048 111.490587,21.9709126 111.525032,22.6212288 C111.552096,23.1231345 111.471396,23.6135132 111.379871,24.107254 C110.850403,26.9774823 110.333729,29.8496319 109.813118,32.7208208 C109.807705,33.0349321 110.20579,32.8860414 110.279601,33.1088972 L110.255982,33.1189833 C109.733894,33.1209045 109.211807,33.1228257 108.68972,33.1247469 C108.610005,33.1084169 108.530289,33.092087 108.451066,33.0767176 C108.191253,32.7630866 107.930947,32.4489752 107.661785,32.1238171 C107.281414,32.4677066 106.922694,32.7919041 106.563975,33.1165819" id="Fill-4"></path>
                    <path d="M36.2062241,33.0176416 C35.8701398,33.7135855 35.8332345,34.454677 35.711201,35.16551 C35.6167234,35.7120829 35.3756087,35.8350378 34.8564741,35.8470451 C33.3064513,35.883067 33.3054671,35.9037196 33.5908681,34.3744681 C34.0268428,32.0373645 34.4677382,29.7007412 34.9002684,27.3631573 C34.9553803,27.063935 34.9706345,26.7575083 35.002127,26.4760569 C34.6394709,26.1043104 34.3880227,26.7430996 34.0622719,26.5245664 C35.0867632,25.4261373 36.1673505,25.6158529 37.2159533,27.0701788 C38.4013517,25.9035482 39.1591406,25.7191158 40.4439373,26.2392727 C41.0304857,26.4765372 41.3916656,26.8862267 41.6165419,27.4486493 C42.4737291,29.5907542 41.1102011,32.3937416 38.8752158,33.0575059 C37.9870281,33.3211865 37.0949039,33.2774799 36.2062241,33.0176416 L36.2062241,33.0176416 Z M39.6733546,28.2209598 C39.6733546,27.9150134 39.7028788,27.605705 39.6674497,27.3040813 C39.5636228,26.4035327 38.9534551,26.1571426 38.1932058,26.6960309 C37.8699153,26.9251304 37.638642,27.2349191 37.4423058,27.5672816 C36.6353098,28.9351548 36.629897,30.4970662 36.3400674,31.9883746 C36.2736378,32.330343 36.5265622,32.545514 36.8345985,32.6852792 C37.4861001,32.9816197 38.1400621,32.7784559 38.6380377,32.0450492 C39.4209223,30.8904258 39.6290682,29.5720228 39.6733546,28.2209598 L39.6733546,28.2209598 Z" id="Fill-5"></path>
                    <path d="M12.3024117,22.7912523 C12.2925703,22.8594539 12.2679668,22.9218919 12.2290932,22.9785664 C12.0952499,23.0030614 12.0386618,23.0875928 12.0371856,23.2143901 L12.0243917,23.2249565 C11.7650705,23.2725055 11.7793405,23.4651028 11.7847533,23.6538578 C11.1544107,24.6893685 10.3262556,25.5269988 9.22746165,26.0975863 C8.41406871,26.5197635 7.55245285,26.7397375 6.62982021,26.6989126 C5.22791067,26.6379155 4.60494911,26.0207395 4.51785259,24.6341349 C4.50653497,24.4593084 4.55820239,24.251822 4.35251682,24.1331898 C2.39850392,25.6480325 1.60676209,30.3601829 2.82316096,33.2006331 C2.86301869,33.2582682 2.90287642,33.3159033 2.94322622,33.3730581 C2.9924333,33.4407794 3.04213244,33.5080203 3.09133952,33.5757416 C3.11003821,33.7135855 3.19024574,33.794755 3.32950176,33.8221317 L3.3270414,33.8197302 C3.36001014,33.9513304 3.44267803,34.0257757 3.58488647,34.029618 L3.57996576,34.0272166 C3.65476052,34.375909 4.05629024,34.2750475 4.23540399,34.4796522 C4.08138585,34.5012653 3.92785978,34.5223982 3.77384163,34.5440114 C1.58363477,34.1708241 0.391839437,32.8072735 0.101025629,30.7506607 C-0.681858919,25.2239342 3.57110849,21.4017659 8.93074299,22.0146193 C9.88732851,22.1236457 10.6451175,22.4987542 10.9890749,23.4382064 C11.5564325,23.376729 11.5234637,22.7931735 11.8674212,22.5650345 C12.0042168,22.5266111 12.0573605,22.4382373 12.0317728,22.3023145 L12.0357094,22.2941495 C12.3457139,22.3465014 12.2453315,22.6092215 12.3024117,22.7912523 L12.3024117,22.7912523 Z M7.69170887,22.5583104 C6.70215461,22.5607119 5.7908396,22.9540715 5.15016349,23.7585616 C4.48193143,24.5985933 4.60248876,25.080807 5.62304348,25.4756075 C6.09444725,25.6581187 6.59783561,25.7546575 7.11549403,25.7032662 C8.22905012,25.591358 9.23927135,25.222013 10.1151573,24.5337538 C10.7863418,24.0059122 10.77404,23.5712475 10.0492198,23.1072848 C9.41248025,22.6995165 8.69061247,22.5453425 7.69170887,22.5583104 L7.69170887,22.5583104 Z" id="Fill-6"></path>
                    <path d="M66.3696684,28.764651 C66.0493304,30.0614409 65.6197526,31.3394994 65.6118795,32.6641463 C66.0271872,32.9883438 66.2368093,32.3711678 66.5827351,32.5320658 C66.645228,32.6506981 66.6299738,32.7746136 66.5414011,32.8418545 C66.0114409,33.2453003 65.4017653,33.323588 64.7586288,33.2179236 C63.9132513,33.0786388 63.5328806,32.663666 63.4989277,31.8202722 C63.4630066,30.9302901 63.7085499,30.0744088 63.8635521,29.2074807 C63.9654108,28.6416961 64.0716981,28.0759114 64.1400959,27.5058041 C64.182414,27.1566315 64.1356673,26.7968923 63.7572649,26.6163023 C63.347862,26.4208232 62.9837297,26.5778789 62.6811062,26.8478033 C62.2977831,27.1902519 62.0847164,27.645089 61.8814912,28.1066501 C61.3475945,29.3198692 61.2457358,30.629627 60.9800176,31.901922 C60.7226646,33.1319512 60.7482523,33.1410768 59.424582,33.1165819 C59.1588638,33.111779 58.8724786,33.1924681 58.5462357,32.9259057 C58.9187333,30.8452783 59.3015643,28.7098976 59.6770143,26.6105388 C59.2774528,26.2056522 59.0363382,26.8713377 58.6854917,26.6619301 C58.6603961,26.3108362 58.9669562,26.246477 59.1908484,26.1513791 C60.2694675,25.6926997 61.1350199,26.0490768 61.7978392,27.256052 C62.4675475,26.4472393 63.2061456,25.7983641 64.3767819,25.9981658 C65.1754127,26.1340886 65.7575324,26.5087168 66.0857436,27.2392418 C65.9996312,27.7800512 66.4872733,28.2185583 66.3696684,28.764651" id="Fill-7"></path>
                    <path d="M139.828941,31.3053986 C139.757591,31.0686144 139.657208,30.8832215 139.342283,30.9663121 C138.095868,31.2957928 136.933105,31.0225063 135.74623,30.417818 C135.463289,30.8366331 135.186254,31.2371971 134.918075,31.6435246 C134.254272,32.6468557 133.527483,33.597835 132.593533,34.3826331 C130.97708,35.741861 129.110164,36.1126469 127.07742,35.6217879 C124.070868,34.8955855 122.576941,31.7318984 123.780546,28.7358334 C124.718925,26.3996904 126.993276,25.2061633 129.472328,25.7464925 C130.058876,25.8747306 130.65133,26.0687688 131.0317,26.5067956 C131.686646,27.2608549 132.575326,27.6657416 133.372973,28.2108736 C134.077618,28.6926071 134.755692,29.2108427 135.476575,29.7353222 C135.970122,29.2089216 136.217142,28.5999106 136.539448,28.0394092 C137.270173,26.7671142 137.994993,25.4885754 138.955515,24.3632499 C139.709368,23.4795116 140.507014,22.6289134 141.714556,22.3181642 C141.688968,22.5554287 141.780001,22.8243925 141.52068,22.9982584 C140.745669,22.8993182 140.36825,23.5044868 139.941625,23.9257034 C138.184441,25.6600398 137.166346,27.8573783 135.982916,29.9485721 C137.357762,30.7929265 138.144583,30.8798594 139.836814,30.4139756 C139.614398,30.7093555 139.956879,31.0090581 139.828941,31.3053986 L139.828941,31.3053986 Z M132.239734,28.0639041 C132.31256,28.5288273 132.386371,28.8275693 132.401133,29.129193 C132.466579,30.4149362 132.159526,31.5748427 131.081399,32.4153547 C130.152862,33.1396359 128.830176,33.1386753 128.034989,32.4542584 C127.497156,31.9912564 127.290486,31.2439212 127.563094,30.5643072 C127.817986,29.9279195 128.295787,29.5628972 129.030941,29.4740431 C129.029464,29.9668232 128.652046,29.9255181 128.456694,30.0806526 C127.987259,30.4548005 127.772224,30.9163616 127.908527,31.4965551 C128.044339,32.0733864 128.509838,32.4312044 129.191356,32.5070906 C129.986542,32.5959447 130.663139,32.3601211 131.201957,31.7732036 C132.014858,30.8885047 132.267782,29.1527273 131.741758,28.0840764 C131.638423,27.8746688 131.511469,27.7152117 131.275767,27.6033035 C129.873858,26.9385786 128.018751,27.3727631 127.045435,28.6003909 C126.926846,28.7492816 126.902243,29.0974937 126.471681,28.8876059 C126.771352,28.0518968 127.388901,27.538464 128.175722,27.15423 C128.941384,26.7805624 129.797587,26.9861276 130.700045,26.8838253 C130.311801,26.3785575 129.888128,26.2844202 129.478725,26.1739529 C127.297867,25.5841536 125.101756,26.6849842 124.224394,28.8030744 C123.235331,31.1915693 124.017232,33.7539301 126.123295,34.8024088 C127.978401,35.7260114 129.851223,35.667896 131.61382,34.5617822 C133.212558,33.5589313 134.208017,32.0277586 135.156237,30.4692093 C135.321573,30.1973637 135.225127,30.0571182 135.001727,29.9115896 C134.126333,29.3395612 133.38183,28.5811792 132.239734,28.0639041 L132.239734,28.0639041 Z" id="Fill-8"></path>
                    <path d="M163.500988,25.9861585 C165.603606,26.000087 166.666971,27.1801658 166.426349,29.2329362 C166.085344,32.1478318 163.95763,33.7251126 161.118874,33.1679732 C159.951682,32.9388736 159.274592,32.22708 159.130416,31.0609297 C159.040859,30.330885 159.105812,29.6022812 159.285418,28.8957708 C159.776997,26.9597115 161.229097,25.9707891 163.500988,25.9861585 L163.500988,25.9861585 Z M161.225653,30.8971499 C161.225653,30.9735165 161.221224,31.0508436 161.226145,31.1272101 C161.270923,31.7602357 161.098207,32.4979651 161.912092,32.8067932 C162.394321,32.9897846 163.020727,32.5037286 163.485242,31.6454458 C164.12641,30.4615246 164.310936,29.1714588 164.32127,27.8592995 C164.325699,27.306963 164.3877,26.6556863 163.686007,26.3799984 C163.219524,26.1960463 162.66742,26.541857 162.18962,27.2608549 C161.908155,27.6835124 161.727073,28.1479553 161.577484,28.6258464 C161.345718,29.365497 161.270923,30.1286818 161.225653,30.8971499 L161.225653,30.8971499 Z" id="Fill-9"></path>
                    <path d="M141.52068,22.9982584 C141.780001,22.8243925 141.688968,22.5554287 141.714556,22.3181642 L141.735223,22.3128809 C142.000941,22.3493832 142.249929,22.3340138 142.42609,22.0967493 C142.491536,22.0458383 142.563378,22.0352718 142.640633,22.0660106 C143.272452,22.0717741 143.904271,22.0775376 144.53609,22.0833011 L144.557741,22.0861829 C144.455882,22.2922284 144.123242,22.2533247 144.078464,22.5189265 C144.057797,22.6053791 144.037622,22.6918318 144.017447,22.7778041 C143.782729,22.9511898 143.801428,23.1918163 143.832428,23.4362852 C143.846699,23.7095717 143.78519,23.9650874 143.639537,24.2004307 C143.583441,24.2537432 143.572615,24.3147403 143.60706,24.3834222 C143.188308,26.6379155 142.624395,28.8659927 142.309962,31.1392174 C142.195309,31.9691629 142.108213,32.8019902 142.013243,33.594473 C142.461027,33.9522909 142.680491,33.3913092 143.019528,33.4801633 C143.077592,33.5805445 143.086449,33.6828468 142.988527,33.7659374 C142.231722,34.4047265 141.388805,34.336525 140.568523,33.9633377 C139.768908,33.6002365 139.678367,32.8610662 139.725606,32.1007631 C139.741844,31.8342007 139.793512,31.5700398 139.828941,31.3053986 C139.956879,31.0090581 139.614398,30.7093555 139.836814,30.4139756 C140.346107,27.9308631 140.815543,25.4391052 141.52068,22.9982584" id="Fill-10"></path>
                    <path d="M94.4988923,25.9842373 C97.2033131,25.9818358 98.183518,26.9880488 98.0806752,29.0513856 C97.9360064,31.9509118 95.8506106,33.6381796 92.9646157,33.1910272 C91.624215,32.9835408 90.8610133,32.2232377 90.7527577,30.900512 C90.6705819,29.8957399 90.8280446,28.9072978 91.2910831,27.9966631 C92.069539,26.466451 93.4576706,25.995284 94.4988923,25.9842373 L94.4988923,25.9842373 Z M95.9406596,28.116256 C95.9406596,27.8866761 95.950993,27.6556554 95.9386913,27.4265559 C95.916056,26.9947729 95.8688172,26.5461796 95.3703496,26.3876831 C94.8477704,26.2219821 94.4772412,26.5317708 94.1450934,26.8761406 C94.0648859,26.9597115 93.9905832,27.0519277 93.9290744,27.1489468 C93.0029972,28.6147997 92.8012482,30.2300236 92.9055672,31.9067249 C92.9119642,32.0181528 92.9646157,32.1295807 93.00841,32.2357253 C93.2593661,32.844256 93.7578338,33.0075555 94.3251913,32.6420528 C94.8015158,32.3351459 95.0770754,31.8620577 95.297031,31.3654352 C95.7551489,30.3304047 95.9603424,29.2425421 95.9406596,28.116256 L95.9406596,28.116256 Z" id="Fill-11"></path>
                    <path d="M57.4508863,28.9101796 C57.3692025,31.9172913 55.188345,33.7030191 52.2334602,33.1814214 C50.9742512,32.9590459 50.2228592,32.1800114 50.1131274,30.9269281 C50.0388247,30.0787314 50.159382,29.2420618 50.4570848,28.4414141 C51.2419377,26.3324494 54.2253626,25.2618773 56.2448209,26.3535823 C57.1069288,26.8194661 57.4858233,27.6229955 57.4508863,28.9101796 L57.4508863,28.9101796 Z M55.3359662,28.3405526 C55.3118548,27.9198163 55.3315376,27.4913954 55.2552666,27.0797846 C55.1233917,26.3694319 54.5816218,26.1408127 53.9468505,26.510638 C53.4572401,26.7959317 53.1556008,27.2512491 52.9326927,27.7497928 C52.4391458,28.8559065 52.2314919,30.0215766 52.2285395,31.2213474 C52.2275554,31.8322796 52.1739196,32.5003665 52.9144861,32.7880618 C53.3967154,32.9763364 53.9975338,32.5724104 54.4458103,31.7703218 C55.0407238,30.7055132 55.2838067,29.5475278 55.3359662,28.3405526 L55.3359662,28.3405526 Z" id="Fill-12"></path>
                    <path d="M15.7577324,25.9847176 C18.0212578,25.9991264 19.100369,27.2161877 18.8125076,29.3126648 C18.4144224,32.2184348 16.2320886,33.7803462 13.4366348,33.1530841 C12.478573,32.9383933 11.8093568,32.3894189 11.5918616,31.4379594 C11.4939395,31.010499 11.2070622,30.4206997 12.0814719,30.3457741 C12.3417774,30.3232003 12.262554,30.0470321 12.2664905,29.8741268 C12.2783002,29.3386006 12.318158,28.7977911 12.2596015,28.2685087 C12.1808702,27.5538334 12.5464788,27.1086022 13.083328,26.7392572 C13.9159117,26.1662682 14.8562588,25.9568606 15.7577324,25.9847176 L15.7577324,25.9847176 Z M13.6364155,30.982642 C13.6364155,31.1584291 13.6255899,31.4273929 13.6388758,31.6949159 C13.6624952,32.1732873 13.7520521,32.6569419 14.293822,32.8058326 C14.7593209,32.9331101 15.1524854,32.6675083 15.4118067,32.3173751 C16.6065545,30.7064738 16.916067,28.8856847 16.5814589,26.9659553 C16.4702509,26.3271662 15.8876391,26.1648273 15.3065036,26.5096774 C14.8542906,26.7781609 14.5851279,27.2037001 14.3577912,27.6570963 C13.8465297,28.677718 13.6654477,29.7675018 13.6364155,30.982642 L13.6364155,30.982642 Z" id="Fill-13"></path>
                    <path d="M87.290548,28.5470784 C87.1591651,28.3319074 87.1389902,28.0956034 87.1542444,27.8530557 C87.234944,27.5216538 87.0755131,27.244525 86.9411778,26.962113 C87.0499254,26.2969078 87.0671479,25.5956806 87.6231878,25.1273954 C87.9577959,25.1835896 87.978955,25.394438 87.9956854,25.5731069 C88.069496,26.3603064 88.4055803,27.0447233 88.8248246,27.7032044 C89.2002746,28.2920431 89.5033901,28.9063373 89.6062329,29.6099659 C89.8419348,31.2194262 89.0767648,32.4989256 87.5114878,33.0387745 C86.7108887,33.315423 85.8876543,33.3341544 85.0727852,33.1281089 C84.02123,32.8620268 83.339712,31.9912564 83.3894112,31.0402771 C83.4263165,30.3395303 83.8352273,29.8347428 84.4695065,29.706985 C85.0909918,29.5821089 85.7129692,29.8702844 85.9462108,30.3914019 C86.2188179,30.9999325 86.0008306,31.6795465 85.4108378,32.1118098 C85.238121,32.2386071 84.925164,32.1800114 84.8754648,32.5666469 C85.6514604,32.9479992 86.3344546,32.7750939 86.9711941,32.2357253 C87.1001166,32.1963413 87.1601493,32.1113295 87.1503079,31.9797294 C87.1754035,31.9076855 87.2004991,31.8366022 87.2255947,31.7645583 C87.3436917,31.6997188 87.387978,31.6026997 87.3623903,31.473501 C87.4612966,30.5839992 87.4327565,29.6940171 87.3751842,28.8040349 C87.4115974,28.6978903 87.3889622,28.610477 87.290548,28.5470784" id="Fill-14"></path>
                    <path d="M80.4187801,28.7728159 C80.3651444,28.4961674 80.3120008,28.2190386 80.2588571,27.9423901 C80.4227167,27.5307794 80.0172504,27.4111865 79.8440415,27.1729614 C80.0930293,26.8895888 80.0320125,26.5168818 80.1442047,26.1979675 C80.2873972,25.7906794 80.313477,25.2772466 81.0087729,25.0798464 C81.0535514,26.3574246 81.7631174,27.3357806 82.2950459,28.3957863 C82.9180074,29.636382 83.0218343,30.9187631 82.059344,32.0781894 C81.2016647,33.1112987 79.4282417,33.5445226 78.0563485,33.1055351 C77.0569528,32.78518 76.460071,31.9960593 76.4974684,31.0441195 C76.5255164,30.3241609 76.911792,29.8352231 77.5544364,29.7060244 C78.1582072,29.5845104 78.7993753,29.8779691 79.0424583,30.3885201 C79.3244148,30.9783194 79.0921574,31.6925144 78.4997042,32.1065266 C78.3087808,32.2400479 78.0263322,32.1939399 77.8885524,32.4187168 C78.8397251,33.0195628 79.8287873,32.7899829 80.2534444,31.8269963 C80.4217326,31.4451638 80.4694634,31.0133807 80.5723062,30.6041715 C80.8586914,30.3015872 80.8567231,29.9990028 80.5718141,29.6968988 C80.5496709,29.487011 80.5285119,29.2776034 80.5068608,29.0677156 C80.5550837,28.9476424 80.5349088,28.8463007 80.4187801,28.7728159" id="Fill-15"></path>
                    <path d="M74.7368393,32.711215 C75.1329562,32.875475 75.3445467,32.4744307 75.6998217,32.537349 C75.6673451,32.6396514 75.6683292,32.7707712 75.6023917,32.8250443 C74.9213658,33.3845851 74.15718,33.3893881 73.4077562,33.0205234 C72.6558721,32.6506981 72.5761567,31.9600374 72.7016347,31.2357562 C72.9363525,29.8789297 73.1622129,28.5197017 73.4441695,27.1724811 C73.5578378,26.6287899 73.3895496,26.3915254 72.842859,26.2195807 C73.7969842,26.1504185 74.7511093,26.0812564 75.8499033,26.0015278 C75.6417574,28.2944445 74.9508901,30.4812166 74.7368393,32.711215" id="Fill-16"></path>
                    <path d="M45.811937,29.1988354 C45.6382361,30.1767111 45.5073453,31.1646729 45.2795165,32.130061 C45.0241318,33.2092783 45.3100249,33.1040943 44.0080057,33.1189833 C43.6960329,33.1223454 43.3835679,33.1194636 42.9067514,33.1194636 C43.1158815,30.8832215 43.7329382,28.7574466 43.9922594,26.6177432 C43.6173015,26.1950857 43.3609327,26.87518 43.0341977,26.6484819 C43.9489572,25.6480325 45.0566085,25.7282414 45.8621283,26.8516457 C45.8060322,27.15423 45.797667,27.4400041 46.0973381,27.6465299 C46.2784201,27.7714059 46.2400386,27.9726485 46.2548007,28.1527582 C46.2725153,28.2195189 46.2493879,28.2675482 46.1859108,28.2973263 C46.083068,28.3463161 46.0446865,28.4270053 46.0609248,28.5355514 C46.0358292,28.6143194 46.0102416,28.6935677 45.9846539,28.7723356 C45.8124291,28.8703153 45.7848732,29.0244892 45.811937,29.1988354" id="Fill-17"></path>
                    <path d="M170.517425,28.9543665 C170.286151,30.1498147 170.035195,31.3423811 169.833938,32.5426323 C169.76308,32.9667306 169.584951,33.1396359 169.151928,33.1242666 C168.616555,33.1055351 168.079706,33.1199439 167.439522,33.1199439 C167.877465,30.8361528 168.2849,28.7079764 168.692334,26.5802804 C168.955592,26.110074 169.43044,26.2671296 169.833938,26.2138171 L169.842304,26.2166989 C169.910702,26.3987298 170.048973,26.4798992 170.242357,26.4798992 L170.283691,26.5236059 C170.332406,26.5836424 170.381121,26.643679 170.430328,26.7037156 C170.535139,26.7772003 170.558759,26.8809435 170.544981,26.9986152 C170.395883,27.4765063 170.883525,27.8463316 170.778222,28.3170183 C170.751158,28.3919439 170.724587,28.4668696 170.698015,28.5417952 C170.527758,28.6335311 170.495282,28.7824218 170.517425,28.9543665" id="Fill-18"></path>
                    <path d="M70.8061782,27.1768037 C71.2293591,28.0840764 70.9597043,28.991349 70.8051941,29.8981414 C70.6772557,29.9735473 70.6388742,30.0753694 70.7062879,30.209371 C70.588683,30.8764974 70.470586,31.5431434 70.3529811,32.2097895 C70.227503,32.2885575 70.171407,32.3740496 70.324441,32.4806745 C70.3323141,32.5935433 70.3401872,32.7068923 70.3475683,32.8197611 C70.44303,33.0200431 70.7535267,32.8788371 70.8293055,33.1098578 C70.6398583,33.1511629 70.4523794,33.213601 70.2604718,33.2318521 C68.7837675,33.3716172 68.1140592,32.7798968 68.2562676,31.3428614 C68.3645232,30.2501959 68.6012092,29.1700179 68.794593,28.0864779 C68.8684036,27.6719854 68.9574685,27.2637367 68.7813071,26.8545274 C68.7266873,26.5293694 68.481144,26.4510817 68.196235,26.4261065 C68.0092481,26.4092962 67.8050388,26.4304291 67.7277837,26.1994084 L67.7760066,26.1801967 C68.4211113,26.1023893 69.0672002,26.1273645 69.712797,26.1782755 C69.7836552,26.1926843 69.8510689,26.2166989 69.914546,26.25128 C69.9617848,26.3627078 70.0311668,26.4419561 70.1704228,26.4232247 L70.1930581,26.4400349 C70.2127409,26.5663519 70.2880277,26.6335928 70.4194106,26.6388761 L70.44303,26.663371 C70.4400776,26.7954514 70.5158565,26.8674953 70.6364138,26.9054384 L70.6413345,26.914564 C70.6196834,27.0471247 70.6743033,27.1350183 70.8061782,27.1768037" id="Fill-19"></path>
                    <path d="M114.122181,30.4869801 C114.180246,31.179562 114.115292,31.8971191 114.555696,32.5114132 C114.579807,32.6314864 114.657062,32.6876806 114.78008,32.6881609 L114.798287,32.6972865 C115.148641,33.205436 115.802603,32.7381113 116.194783,33.111779 L116.137703,33.1237863 C115.419772,33.1189833 114.701349,33.1141804 113.983417,33.1088972 L113.907146,33.1194636 L113.845638,33.0743161 C113.755097,32.9134181 113.607967,32.8788371 113.435251,32.8994896 L113.376202,32.8797976 C113.311741,32.7160179 113.183802,32.6530996 113.011578,32.6603039 C112.952529,32.667028 112.920053,32.6415725 112.913656,32.5844177 C112.902338,32.5008468 112.853623,32.455219 112.767511,32.447054 C112.162756,31.9638797 112.05204,31.2809037 112.035309,30.5892824 C111.977737,28.2248021 112.98353,26.8228281 115.266738,26.0317863 C115.575266,26.3987298 116.145084,26.0308257 116.442295,26.4299488 C114.878494,26.9842064 114.494187,28.2699496 114.322946,29.687293 C114.531092,29.8942991 114.978384,30.1330045 114.240278,30.2074498 C114.191563,30.212733 114.161547,30.389961 114.122181,30.4869801" id="Fill-20"></path>
                    <path d="M56.7211454,2.01043397 C55.9097207,0.847645672 55.3861574,0.653127184 54.047725,1.01814953 C53.1649501,1.25877611 52.3879704,1.69151971 51.6577374,2.22560504 C51.2365249,2.53299228 51.084475,2.82356928 51.4987986,3.2486282 C52.0292508,3.79327997 51.9928376,4.50651443 52.0395843,5.18516782 C52.0676324,5.59197562 51.9579006,5.97957172 51.5051955,6.10444779 C51.0500301,6.23028444 50.764629,5.92145632 50.5500862,5.59149533 C50.4064015,5.37152133 50.2627169,5.12705242 50.3616231,4.7279293 C50.6755642,4.85808858 50.7823436,5.20918245 51.0677446,5.32877529 C51.4451629,5.48679155 51.6661026,5.27258106 51.8998362,5.07518082 C52.190158,4.82975132 51.8811376,4.68806501 51.7753423,4.51563998 C51.5942603,4.22074035 51.4121941,3.92488013 51.2212707,3.63526371 C50.9599811,3.23854206 50.6804849,3.00656075 50.3020825,3.7716668 C50.6081505,2.84614303 50.1515089,2.47103454 49.5856275,2.12666477 C49.1171762,1.84185128 48.6477407,1.56184072 48.1286061,1.37980983 C46.5584084,0.827953677 45.8729538,1.07002113 45.0039569,2.4671922 C44.8966855,1.32553677 45.5388378,0.516724096 46.6538701,0.397131247 C47.341785,0.323166193 47.967699,0.515283218 48.5857398,0.794333198 C49.3809261,1.15359204 50.0043797,1.74050955 50.7424859,2.28900366 C51.4815761,1.52966111 52.3299061,0.922571312 53.317,0.517204388 C53.7514984,0.338535555 54.1884573,0.175716375 54.6697024,0.144497359 C56.0632468,0.0527614791 56.7206533,0.596452662 56.9214181,2.02532304 C56.8554807,2.01043397 56.788559,2.00563104 56.7211454,2.01043397" id="Fill-21"></path>
                    <path d="M170.778222,28.3170183 C170.883525,27.8463316 170.395883,27.4765063 170.544981,26.9986152 C170.832842,27.3357806 170.994733,27.0975555 171.165482,26.8727785 C171.641806,26.2459967 172.255419,25.901627 173.080129,25.9698285 C173.876792,26.0356286 174.261099,26.4145794 174.340322,27.205141 C174.39199,27.7224161 174.250273,28.1892605 174.010143,28.6378537 C173.593851,29.4140065 172.945794,30.063362 172.694346,30.9302901 C172.656948,31.0594888 172.542296,31.0998334 172.417802,31.0801414 C172.206704,31.0470012 172.19883,30.9009923 172.244101,30.7400943 C172.411405,30.138768 172.75487,29.6272564 173.115066,29.1248704 C173.43196,28.6830012 173.720805,28.2257627 173.798552,27.6825518 C173.860061,27.2522097 173.832997,26.79305 173.404404,26.5605884 C173.012715,26.3478188 172.576741,26.41554 172.174227,26.6475213 C171.496153,27.0389598 171.244705,27.7622804 170.778222,28.3170183" id="Fill-33"></path>
                    <path d="M46.2548007,28.1527582 C46.2400386,27.9726485 46.2784201,27.7714059 46.0973381,27.6465299 C45.797667,27.4400041 45.8060322,27.15423 45.8621283,26.8516457 C46.0569883,27.0404007 46.1913236,27.4102259 46.5126458,26.9275319 C46.9427156,26.2829793 47.5563278,25.9174766 48.3879274,25.9664665 C49.247575,26.0173775 49.6648509,26.3987298 49.720947,27.2488476 C49.7622809,27.8842747 49.5216584,28.4375717 49.1939392,28.9735782 C48.816521,29.592195 48.2885291,30.130603 48.1222092,30.8649703 C48.0843197,31.0311516 47.9529368,31.1344145 47.7752993,31.0734173 C47.5838838,31.0076172 47.6316146,30.8366331 47.6581865,30.6906241 C47.7634896,30.1056278 48.1423841,29.6570345 48.4602618,29.1786631 C48.7786315,28.6988509 49.1427639,28.2363291 49.1649071,27.6340423 C49.178685,27.256052 49.2333049,26.8300325 48.8421087,26.5946892 C48.4021974,26.3295677 47.9494923,26.4189021 47.5154859,26.6720163 C46.9141755,27.0226298 46.6819181,27.6652613 46.2548007,28.1527582" id="Fill-34"></path>
                    <path d="M73.8265084,23.2965201 C73.8161749,22.5746404 74.3963263,21.9656294 75.1167179,21.9416148 C75.8745068,21.9166396 76.5491358,22.5693572 76.5279768,23.306126 C76.5078019,24.0049516 75.8804117,24.601475 75.165925,24.6005144 C74.4386444,24.5995538 73.8363498,24.0131166 73.8265084,23.2965201" id="Fill-35"></path>
                    <path d="M114.122181,30.4869801 C114.161547,30.389961 114.191563,30.212733 114.240278,30.2074498 C114.978384,30.1330045 114.531092,29.8942991 114.322946,29.687293 C115.153562,29.7535733 115.969907,29.6781674 116.751807,29.3928736 C117.630646,29.0725185 118.099097,28.406833 118.007572,27.6628598 C117.914571,26.9073596 117.528787,26.6038147 116.442295,26.4299488 C116.145084,26.0308257 115.575266,26.3987298 115.266738,26.0317863 C115.77111,25.9294839 116.280896,25.9386095 116.785268,26.0005672 C117.735457,26.116798 118.277719,26.5639504 118.474547,27.3492288 C118.680233,28.1695685 118.383022,28.9298716 117.624249,29.4418635 C116.894016,29.9346436 116.051099,30.0916993 115.185546,30.1671052 C114.80862,30.1997651 114.385931,30.0945811 114.122181,30.4869801" id="Fill-39"></path>
                    <path d="M4.23540399,34.4796522 C4.05629024,34.2750475 3.65476052,34.375909 3.57996576,34.0272166 C6.18449619,34.7284437 8.15425536,33.896577 9.53845036,31.4211491 C9.5881495,32.9398342 8.30532108,34.0781276 6.34835575,34.5113515 L6.25437024,34.4479529 C6.06000229,34.2452694 5.88433304,34.3394067 5.71112414,34.4796522 C5.2190534,34.5661048 4.72747473,34.5617822 4.23540399,34.4796522" id="Fill-40"></path>
                    <path d="M12.3024117,22.7912523 C12.2453315,22.6092215 12.3457139,22.3465014 12.0357094,22.2941495 C12.7172273,20.6164876 13.132043,18.8643803 13.5724463,17.1185169 C13.6452728,16.829861 13.6216534,16.4941365 13.8937685,16.2736822 C13.9508487,16.4211321 14.0074368,16.5685819 14.064025,16.7155514 C13.6841463,18.3000366 13.3214902,19.8883641 12.9130715,21.4656449 C12.7925142,21.9315286 12.6783537,22.4257497 12.3024117,22.7912523" id="Fill-42"></path>
                    <path d="M116.194783,33.111779 C115.802603,32.7381113 115.148641,33.205436 114.798287,32.6972865 C116.588932,33.1727761 117.499263,32.0705047 118.314132,30.660846 C118.424356,31.8596562 117.665091,32.6742324 116.194783,33.111779" id="Fill-44"></path>
                    <path d="M86.9411778,26.962113 C87.0755131,27.244525 87.234944,27.5216538 87.1542444,27.8530557 C86.873272,27.5423064 86.6744755,27.8011841 86.4722344,27.955358 C85.9742588,28.3347891 85.4265841,28.6172011 84.8159243,28.7728159 C84.7248912,28.7963503 84.5595554,28.7540845 84.5128087,28.6863633 C84.4025848,28.5278667 84.5088721,28.3751337 84.6658427,28.3285453 C85.5496017,28.0682267 86.2448977,27.5158903 86.9411778,26.962113" id="Fill-46"></path>
                    <path d="M79.8440415,27.1729614 C80.0172504,27.4111865 80.4227167,27.5307794 80.2588571,27.9423901 C80.0384094,27.6513328 79.8292794,27.7541154 79.5852123,27.9318236 C78.991775,28.3631264 78.3766866,28.7588874 77.4929275,28.7833824 C77.7010734,28.135948 78.317146,28.2017481 78.678818,27.9347054 C79.0508235,27.6594978 79.4543215,27.425115 79.8440415,27.1729614" id="Fill-48"></path>
                    <path d="M67.7277837,26.1994084 C67.8050388,26.4304291 68.0092481,26.4092962 68.196235,26.4261065 C68.481144,26.4510817 68.7266873,26.5293694 68.7813071,26.8545274 C67.8266899,26.5586672 67.5924642,26.6086176 67.1210604,27.3449061 C66.832707,27.7949403 66.6176721,28.2896416 66.3696684,28.764651 C66.4872733,28.2185583 65.9996312,27.7800512 66.0857436,27.2392418 C66.4100182,27.4380829 66.5522267,27.193614 66.7170704,26.9952531 C66.9955824,26.6600089 67.2061887,26.2407135 67.7277837,26.1994084" id="Fill-49"></path>
                    <path d="M106.514768,26.4453182 C106.481799,26.1777952 106.225922,26.1374506 106.052713,26.0130549 C106.751946,25.8487948 107.429527,25.8670459 108.057409,26.254642 C108.267032,26.3838407 108.467304,26.463089 108.678895,26.2671296 C108.748769,26.5745169 108.771404,26.8468427 108.312794,26.8526063 C108.273921,26.8526063 108.237507,27.0312751 108.20011,27.1268533 C107.77939,26.5673125 107.20908,26.3603064 106.514768,26.4453182" id="Fill-52"></path>
                    <path d="M46.5288841,8.01697278 C46.3778184,8.05299472 46.2951505,8.15577733 46.2454514,8.29170012 C45.30412,7.29461276 44.9296542,6.4459358 44.9729564,5.23271678 C45.3331522,6.24997643 45.9708759,7.111141 46.5288841,8.01697278" id="Fill-53"></path>
                    <path d="M54.5457006,9.81134579 C54.5225733,9.64852662 54.5092874,9.4813848 54.325745,9.40069565 C54.8650545,8.50158797 55.4043641,7.60296059 55.9436736,6.7043332 C55.9692613,6.84986184 55.9948489,6.9949102 56.0199445,7.14043885 C55.6469549,8.092859 55.2119644,9.01309955 54.5457006,9.81134579" id="Fill-55"></path>
                    <path d="M14.064025,16.7155514 C14.0074368,16.5685819 13.9508487,16.4211321 13.8937685,16.2736822 C14.0492628,15.6315311 14.2298528,14.9994661 14.6333508,14.4533734 C14.7578447,14.7208964 14.9108787,14.4879545 15.0511189,14.4759472 C14.7224156,15.2223218 14.3932203,15.9691768 14.064025,16.7155514" id="Fill-57"></path>
                    <path d="M56.0199445,7.14043885 C55.9948489,6.9949102 55.9692613,6.84986184 55.9436736,6.7043332 C56.2290746,5.83788541 56.5139836,4.97143763 56.7988925,4.10498984 C56.7737969,5.17892401 56.6291281,6.21923771 56.0199445,7.14043885" id="Fill-59"></path>
                    <path d="M106.563975,33.1165819 C106.922694,32.7919041 107.281414,32.4677066 107.661785,32.1238171 C107.930947,32.4489752 108.191253,32.7630866 108.451066,33.0767176 C107.821708,33.0896855 107.192841,33.1031337 106.563975,33.1165819" id="Fill-60"></path>
                    <path d="M169.833938,26.2138171 C169.43044,26.2671296 168.955592,26.110074 168.692334,26.5802804 C168.419727,26.4285079 168.167295,26.5375343 167.913878,26.6369549 C167.85237,26.5826818 167.790861,26.5279285 167.729352,26.4736554 C168.351821,25.7781918 169.070245,25.8209378 169.833938,26.2138171" id="Fill-61"></path>
                    <path d="M53.8627064,14.7045664 C53.943406,14.6214758 54.0236136,14.5388655 54.1038211,14.4557749 C54.6170509,14.8933214 54.9083567,15.4591061 55.0938674,16.0863681 C54.9984057,16.0854076 54.9024519,16.084447 54.8064981,16.0839667 C54.4920649,15.6238464 54.1776317,15.1642064 53.8627064,14.7045664" id="Fill-62"></path>
                    <path id="Fill-65" d="M69.712797,26.1782755 C69.0672002,26.1273645 68.4211113,26.1023893 67.7760066,26.1801967 C68.4211113,25.7930809 69.0667082,25.8036473 69.712797,26.1782755"></path>
                    <path id="Fill-66" d="M113.983417,33.1088972 C114.701349,33.1141804 115.419772,33.1189833 116.137703,33.1237863 C115.417804,33.3716172 114.699872,33.3427997 113.983417,33.1088972"></path>
                    <path d="M70.8293055,33.1098578 C70.7535267,32.8788371 70.44303,33.0200431 70.3475683,32.8197611 C70.4533635,32.7784559 70.5562063,32.7265843 70.6649539,32.6977668 C70.9173862,32.6305258 71.2141049,32.1824128 71.4050283,32.596425 C71.5467447,32.9023714 71.1570247,33.0709541 70.8293055,33.1098578" id="Fill-67"></path>
                    <path d="M110.279601,33.1088972 C110.20579,32.8860414 109.807705,33.0349321 109.813118,32.7208208 C110.180203,32.7895026 110.430175,32.4067095 110.777577,32.4393694 C110.99458,32.6766339 110.840562,32.8284063 110.699337,32.9398342 C110.586161,33.0286883 110.421317,33.0551044 110.279601,33.1088972" id="Fill-68"></path>
                    <path d="M54.8064981,16.0839667 C54.9024519,16.084447 54.9984057,16.0854076 55.0938674,16.0863681 C55.4294597,16.4019204 55.4329042,16.8202552 55.4486504,17.2453141 C55.1194551,16.9158334 54.9226268,16.5219935 54.8064981,16.0839667" id="Fill-69"></path>
                    <path id="Fill-70" d="M4.23540399,34.4796522 C4.72747473,34.5617822 5.2190534,34.5661048 5.71112414,34.4801325 C5.83709425,34.4796522 5.96306436,34.4791719 6.08903447,34.4786916 L6.03539876,34.5670654 C5.27810189,34.8566818 4.52424951,34.835549 3.77384163,34.5440114 C3.92785978,34.5223982 4.08138585,34.5012653 4.23540399,34.4796522"></path>
                    <path id="Fill-71" d="M56.7211454,2.01043397 C56.788559,2.00563104 56.8554807,2.01043397 56.9214181,2.02532304 C57.247661,2.34663876 57.0267213,2.73471516 57.0636266,3.14296384 C56.9396248,2.73279399 56.8303851,2.37161398 56.7211454,2.01043397"></path>
                    <path id="Fill-74" d="M144.53609,22.0833011 C143.904271,22.0775376 143.272452,22.0717741 142.640633,22.0660106 C143.274912,21.8018497 143.906731,21.8354701 144.53609,22.0833011"></path>
                    <path id="Fill-75" d="M144.078464,22.5189265 C144.123242,22.2533247 144.455882,22.2922284 144.557741,22.0861829 C144.782617,22.0717741 145.096066,22.0045331 145.09459,22.3172036 C145.093114,22.6015368 144.806236,22.4732987 144.636964,22.4406388 C144.435707,22.4017351 144.251673,22.4060577 144.078464,22.5189265"></path>
                    <path id="Fill-76" d="M80.5718141,29.6968988 C80.8567231,29.9990028 80.8586914,30.3015872 80.5723062,30.6041715 C80.480781,30.3020675 80.4842255,29.9994831 80.5718141,29.6968988"></path>
                    <path id="Fill-78" d="M108.68972,33.1247469 C109.211807,33.1228257 109.733894,33.1209045 110.255982,33.1189833 C109.734879,33.4595108 109.212792,33.4407794 108.68972,33.1247469"></path>
                    <path id="Fill-79" d="M167.729352,26.4736554 C167.790861,26.5279285 167.85237,26.5826818 167.913878,26.6369549 C167.847449,26.7555872 167.748543,26.7522251 167.661446,26.6787403 C167.539905,26.5754774 167.624049,26.5164015 167.729352,26.4736554"></path>
                    <path id="Fill-82" d="M142.42609,22.0967493 C142.249929,22.3340138 142.000941,22.3493832 141.735223,22.3128809 C141.930083,22.1322909 142.155451,22.0443974 142.42609,22.0967493"></path>
                    <path id="Fill-83" d="M143.832428,23.4362852 C143.801428,23.1918163 143.782729,22.9511898 144.017447,22.7778041 C144.062226,23.0256351 143.956922,23.2336018 143.832428,23.4362852"></path>
                    <path id="Fill-84" d="M45.811937,29.1988354 C45.7848732,29.0244892 45.8124291,28.8703153 45.9846539,28.7723356 C46.0097495,28.9466818 45.9182243,29.0758805 45.811937,29.1988354"></path>
                    <path id="Fill-85" d="M170.242357,26.4798992 C170.048973,26.4798992 169.910702,26.3987298 169.842304,26.2166989 C170.047497,26.200369 170.170515,26.3036319 170.242357,26.4798992"></path>
                    <path id="Fill-86" d="M113.011578,32.6603039 C113.183802,32.6530996 113.311741,32.7160179 113.376202,32.8797976 C113.184787,32.9172605 113.098674,32.7871012 113.011578,32.6603039"></path>
                    <path id="Fill-87" d="M113.435251,32.8994896 C113.607967,32.8788371 113.755097,32.9134181 113.845638,33.0743161 C113.666524,33.1103381 113.549903,33.0080358 113.435251,32.8994896"></path>
                    <path id="Fill-88" d="M6.03539876,34.5670654 C6.03539876,34.5670654 6.08903447,34.4786916 6.08805033,34.4791719 C6.14414639,34.4762901 6.20024245,34.466204 6.25437024,34.4479529 L6.34835575,34.5113515 C6.24403675,34.5296026 6.13971775,34.548334 6.03539876,34.5670654"></path>
                    <path id="Fill-89" d="M11.7847533,23.6538578 C11.7793405,23.4651028 11.7650705,23.2725055 12.0243917,23.2249565 C11.9781371,23.3858545 12.0170107,23.5919 11.7847533,23.6538578"></path>
                    <path id="Fill-90" d="M170.517425,28.9543665 C170.495282,28.7824218 170.527758,28.6335311 170.698015,28.5417952 C170.72311,28.7147005 170.630109,28.838616 170.517425,28.9543665"></path>
                    <path id="Fill-91" d="M170.430328,26.7037156 C170.381121,26.643679 170.332406,26.5836424 170.283691,26.5236059 C170.392439,26.537054 170.443122,26.5956497 170.430328,26.7037156"></path>
                    <path id="Fill-92" d="M70.6364138,26.9054384 C70.5158565,26.8674953 70.4400776,26.7954514 70.44303,26.663371 C70.589175,26.6821024 70.6492077,26.7666339 70.6364138,26.9054384"></path>
                    <path id="Fill-93" d="M70.1704228,26.4232247 C70.0311668,26.4419561 69.9617848,26.3627078 69.914546,26.25128 C70.0567545,26.2277456 70.1433589,26.2834596 70.1704228,26.4232247"></path>
                    <path id="Fill-94" d="M70.4194106,26.6388761 C70.2880277,26.6335928 70.2127409,26.5663519 70.1930581,26.4400349 C70.3323141,26.4366729 70.4100613,26.5005518 70.4194106,26.6388761"></path>
                    <path id="Fill-95" d="M143.60706,24.3834222 C143.572615,24.3147403 143.583441,24.2537432 143.639537,24.2004307 C143.694157,24.2710337 143.683331,24.3320309 143.60706,24.3834222"></path>
                    <path id="Fill-96" d="M12.0371856,23.2143901 C12.0386618,23.0875928 12.0952499,23.0030614 12.2290932,22.9785664 C12.2453315,23.1192922 12.1828385,23.199501 12.0371856,23.2143901"></path>
                    <path id="Fill-97" d="M12.0317728,22.3023145 C12.0573605,22.4382373 12.0042168,22.5266111 11.8674212,22.5650345 C11.8378969,22.4271906 11.9156441,22.3532255 12.0317728,22.3023145"></path>
                    <path id="Fill-99" d="M70.324441,32.4806745 C70.171407,32.3740496 70.227503,32.2885575 70.3529811,32.2097895 C70.3436317,32.3000845 70.3342824,32.3903795 70.324441,32.4806745"></path>
                    <path id="Fill-100" d="M87.1503079,31.9797294 C87.1601493,32.1113295 87.1001166,32.1963413 86.9711941,32.2357253 C86.9667655,32.1074872 87.0361474,32.0282389 87.1503079,31.9797294"></path>
                    <path id="Fill-101" d="M87.3623903,31.473501 C87.387978,31.6026997 87.3436917,31.6997188 87.2255947,31.7645583 C87.1985308,31.6348793 87.2472458,31.5393011 87.3623903,31.473501"></path>
                    <path id="Fill-102" d="M70.7062879,30.209371 C70.6388742,30.0753694 70.6772557,29.9735473 70.8051941,29.8981414 C70.8593219,30.0283007 70.83275,30.1339651 70.7062879,30.209371"></path>
                    <path id="Fill-103" d="M80.4187801,28.7728159 C80.5349088,28.8463007 80.5550837,28.9476424 80.5068608,29.0677156 C80.4025418,28.9908688 80.3656365,28.8948102 80.4187801,28.7728159"></path>
                    <path id="Fill-104" d="M87.290548,28.5470784 C87.3889622,28.610477 87.4115974,28.6978903 87.3751842,28.8040349 C87.276278,28.7406363 87.227563,28.6613881 87.290548,28.5470784"></path>
                    <path id="Fill-105" d="M46.0609248,28.5355514 C46.0446865,28.4270053 46.083068,28.3463161 46.1859108,28.2973263 C46.2119906,28.4106753 46.1573707,28.4831995 46.0609248,28.5355514"></path>
                    <path id="Fill-106" d="M70.8061782,27.1768037 C70.6743033,27.1350183 70.6196834,27.0471247 70.6413345,26.914564 C70.7673046,26.9592312 70.8357025,27.0384795 70.8061782,27.1768037"></path>
                    <path id="Fill-107" d="M3.58488647,34.029618 C3.44267803,34.0257757 3.36001014,33.9513304 3.3270414,33.8197302 C3.463345,33.8307769 3.5524098,33.8970573 3.58488647,34.029618"></path>
                    <path id="Fill-108" d="M3.32950176,33.8221317 C3.19024574,33.794755 3.11003821,33.7135855 3.09133952,33.5757416 C3.22567483,33.6074409 3.3068665,33.6876497 3.32950176,33.8221317"></path>
                    <path id="Fill-109" d="M2.94322622,33.3730581 C2.90287642,33.3159033 2.86301869,33.2582682 2.82316096,33.2006331 C2.91960683,33.2208054 2.95798835,33.2794011 2.94322622,33.3730581"></path>
                    <path id="Fill-110" d="M114.78008,32.6881609 C114.657062,32.6876806 114.579807,32.6314864 114.555696,32.5114132 C114.674777,32.5162162 114.744159,32.5820163 114.78008,32.6881609"></path>
                    <path id="Fill-111" d="M112.767511,32.447054 C112.853623,32.455219 112.902338,32.5008468 112.913656,32.5844177 C112.823607,32.5805754 112.774892,32.5349476 112.767511,32.447054"></path>
                    <path id="Fill-112" d="M6.25437024,34.4479529 C6.20024245,34.466204 6.14414639,34.4762901 6.08805033,34.4791719 C5.96306436,34.4791719 5.83709425,34.4796522 5.71112414,34.4801325 C5.88433304,34.3394067 6.06000229,34.2452694 6.25437024,34.4479529"></path>
                </g>
            </g>
        </g>
    </g>
</svg>