<?xml version="1.0" encoding="UTF-8" standalone="no"?>
<svg width="104px" height="30px" viewBox="0 0 104 30" version="1.1" xmlns="http://www.w3.org/2000/svg" xmlns:xlink="http://www.w3.org/1999/xlink" xmlns:sketch="http://www.bohemiancoding.com/sketch/ns">
    <!-- Generator: Sketch 3.3.3 (12081) - http://www.bohemiancoding.com/sketch -->
    <title>decoartion</title>
    <desc>Created with Sketch.</desc>
    <defs></defs>
    <g id="Design" stroke="none" stroke-width="1" fill="none" fill-rule="evenodd" sketch:type="MSPage">
        <g id="Mobile---Home" sketch:type="MSArtboardGroup" transform="translate(-17.000000, -428.000000)">
            <g id="post" sketch:type="MSLayerGroup" transform="translate(9.000000, 428.000000)">
                <g id="header" sketch:type="MSShapeGroup">
                    <g id="date" transform="translate(8.000000, 0.000000)">
                        <g id="decoartions">
                            <g id="decoartion" transform="translate(0.611111, 0.000000)">
                                <g id="border" fill="#000000">
                                    <path d="M14.6128889,13.8212787 C13.0957037,19.7944947 16.7102963,25.8924234 22.6711852,27.4139176 C29.2859259,29.102215 40.0208148,25.638841 47.9598519,14.0452419 C48.1221481,13.8088075 48.062,13.4855939 47.8255556,13.3229478 C47.5896296,13.1603017 47.2671111,13.2205795 47.1048148,13.4575335 C39.4473333,24.6395809 29.2045185,28.0083812 22.9273333,26.406863 C17.5207407,25.0267098 14.2421481,19.495704 15.6182963,14.0774593 C16.7056296,9.79773707 21.0648148,7.20267481 25.3348148,8.29235153 C28.6953333,9.14975096 30.7331111,12.5881825 29.8780741,15.9554239 C29.2065926,18.5941355 26.5185926,20.1946145 23.8860741,19.5227251 C22.8920741,19.2691427 22.0567407,18.6424617 21.533037,17.7585608 C21.0098519,16.8751796 20.861037,15.8411039 21.1140741,14.8454813 C21.3095556,14.0759004 21.7928148,13.4279143 22.4746667,13.0220785 C23.156,12.6167625 23.954,12.5008836 24.7219259,12.6967864 C25.9342222,13.0070091 26.67,14.2478999 26.362,15.4638482 C26.1286667,16.3804861 25.1942963,16.935977 24.2796296,16.7026604 C23.9519259,16.618999 23.6760741,16.4121839 23.5034074,16.1211877 C23.3307407,15.8301916 23.2814815,15.4882711 23.3654815,15.1598611 C23.436,14.8818558 23.2685185,14.5986542 22.9911111,14.5279837 C22.7137037,14.4567936 22.4311111,14.6251557 22.3605926,14.9031609 C22.2086667,15.5007423 22.2983704,16.1217074 22.6120741,16.6517361 C22.9262963,17.1817648 23.4277037,17.5574617 24.024,17.7091954 C25.492963,18.0848922 26.9925185,17.1921576 27.3668889,15.7200287 C27.8164444,13.9491092 26.7451852,12.1407759 24.9785926,11.6897318 C22.8391852,11.1435943 20.6551852,12.4442433 20.1102222,14.5882615 C19.7887407,15.8530556 19.978,17.1666954 20.6427407,18.2891092 C21.3074815,19.411523 22.3694074,20.2065661 23.6314815,20.5292601 C26.8182963,21.3424904 30.072,19.405807 30.884,16.2116044 C31.8805926,12.2883525 29.5068148,8.28351772 25.5925185,7.28425766 C20.7661481,6.05479885 15.8417778,8.98658525 14.6128889,13.8212787 L14.6128889,13.8212787 Z" id="Shape"></path>
                                    <path d="M0.082962963,11.2859746 C-0.173703704,12.7908405 0.171111111,14.3066188 1.05103704,15.5537452 C1.93251852,16.800352 3.24540741,17.6286518 4.74807407,17.885352 C5.97748148,18.0958046 7.21518519,17.8141619 8.23251852,17.0918678 C9.25037037,16.3690541 9.92651852,15.2923683 10.136,14.0603113 C10.3086667,13.0475407 10.0774074,12.0269756 9.48474074,11.1893223 C8.89207407,10.3511494 8.00851852,9.79357998 6.99740741,9.62054119 C5.27177778,9.32538793 3.62807407,10.4919708 3.33355556,12.2213194 C3.08881481,13.6612308 4.05792593,15.0330699 5.49474074,15.2788578 C6.70081481,15.4851533 7.84933333,14.6698443 8.05518519,13.4616906 C8.10340741,13.178489 7.91362963,12.9098372 7.63155556,12.8620307 C7.34948148,12.8131849 7.08140741,13.0033716 7.03318519,13.2860536 C6.92377778,13.9298827 6.31140741,14.3642984 5.66948148,14.2546552 C4.7962963,14.105 4.20725926,13.2709842 4.35607407,12.3959171 C4.55466667,11.2319325 5.66118519,10.4462428 6.82318519,10.6452634 C7.56155556,10.771535 8.20607407,11.1778903 8.63851852,11.7900216 C9.07096296,12.4021528 9.24,13.1457519 9.114,13.8857136 C8.95118519,14.844442 8.42488889,15.6815757 7.63311111,16.2433022 C6.84185185,16.8055484 5.87896296,17.0248348 4.92281481,16.8611494 C3.69288889,16.6506968 2.61851852,15.9730915 1.89725926,14.9525263 C1.176,13.9324808 0.894962963,12.6921097 1.10496296,11.4600527 C1.65874074,8.20972941 4.74755556,6.01686542 7.99088889,6.57131705 C12.0358519,7.26295259 14.7534074,11.0594133 14.3126667,15.4020115 C14.2836296,15.6878113 14.4915556,15.9429526 14.7762222,15.9720522 C15.0608889,16.0011518 15.3154815,15.7927778 15.3445185,15.5074976 C15.8412593,10.6140852 12.7545185,6.33176485 8.16562963,5.54711446 C4.35866667,4.89653017 0.732666667,7.47080699 0.082962963,11.2859746 L0.082962963,11.2859746 Z" id="Shape"></path>
                                    <g id="Group" transform="translate(11.962963, 0.519636)">
                                        <path d="M3.68540741,6.07038793 C3.68540741,6.51935345 3.54696296,6.91219828 3.37222222,7.40948994 C3.00874074,8.4420067 2.55659259,9.72654693 3.10777778,12.2052107 C3.17,12.4852945 3.44688889,12.6614511 3.72637037,12.5990948 C4.00585185,12.5372581 4.18214815,12.2592529 4.11992593,11.9791691 C3.63355556,9.79150144 4.01414815,8.70961925 4.35014815,7.75504789 C4.54148148,7.21098898 4.72244444,6.69706897 4.72244444,6.07038793 C4.72244444,5.78354885 4.49014815,5.55075192 4.20392593,5.55075192 C3.9177037,5.55075192 3.68540741,5.78302921 3.68540741,6.07038793 L3.68540741,6.07038793 Z" id="Shape"></path>
                                        <g>
                                            <g transform="translate(1.000000, 2.078544)">
                                                <ellipse id="Oval" cx="1.70644444" cy="1.74961446" rx="0.942148148" ry="0.94417864"></ellipse>
                                                <path d="M0.81562963,0.589267241 C0.506074074,0.827780172 0.308,1.17333812 0.258222222,1.56098659 C0.207407407,1.94863506 0.311111111,2.33316571 0.54962963,2.64286877 C0.788148148,2.95257184 1.13192593,3.1510728 1.51874074,3.20095785 C2.31725926,3.30488506 3.05148148,2.73796216 3.15518519,1.93824234 C3.20548148,1.55059387 3.10177778,1.16606322 2.86325926,0.855840517 C2.62525926,0.546137452 2.28096296,0.347636494 1.89414815,0.297751437 C1.50785185,0.247346743 1.12466667,0.35075431 0.81562963,0.589267241 L0.81562963,0.589267241 Z M1.65148148,2.17051964 C1.53948148,2.15596983 1.43992593,2.09880987 1.37096296,2.00891284 C1.302,1.9190158 1.27192593,1.8078137 1.28644444,1.69505268 C1.30096296,1.58229167 1.35851852,1.48200192 1.44822222,1.41340996 C1.53740741,1.34429837 1.64888889,1.31415948 1.76088889,1.32870929 C1.87340741,1.3432591 1.97296296,1.4009387 2.04192593,1.49083573 C2.11140741,1.58073276 2.14148148,1.6924545 2.12696296,1.80469588 C2.09637037,2.03593391 1.88325926,2.20065852 1.65148148,2.17051964 L1.65148148,2.17051964 Z" id="Shape"></path>
                                            </g>
                                            <g transform="translate(4.629630, 2.598180)">
                                                <ellipse id="Oval" cx="1.54881481" cy="1.53240661" rx="0.942666667" ry="0.944698276"></ellipse>
                                                <path d="M0.100074074,1.34377874 C-0.00362962963,2.14453784 0.562592593,2.88034243 1.36111111,2.98426964 C2.15962963,3.0876772 2.89385185,2.52127395 2.99807407,1.72155412 L2.99807407,1.72103448 C3.10177778,0.920275383 2.53607407,0.184470785 1.73755556,0.0805435824 C0.938,-0.0228639847 0.203777778,0.543539272 0.100074074,1.34377874 L0.100074074,1.34377874 Z M1.49437037,1.95383142 C1.26259259,1.92369253 1.09822222,1.71012213 1.1282963,1.47732519 C1.15837037,1.24556753 1.37148148,1.08084291 1.60377778,1.1109818 C1.81688889,1.13904215 1.97296296,1.32195402 1.97296296,1.53240661 C1.97296296,1.55059387 1.97192593,1.56878113 1.96933333,1.58696839 C1.93925926,1.81924569 1.72614815,1.98345067 1.49437037,1.95383142 L1.49437037,1.95383142 Z" id="Shape"></path>
                                            </g>
                                            <g transform="translate(3.074074, 0.000000)">
                                                <ellipse id="Oval" cx="1.59703704" cy="1.57449713" rx="0.942148148" ry="0.94417864"></ellipse>
                                                <path d="M0.148814815,1.38534962 C0.0451111111,2.18610872 0.610814815,2.92191331 1.40933333,3.02636015 C2.20888889,3.12976772 2.94259259,2.56284483 3.0462963,1.763125 L3.0462963,1.76260536 C3.14948148,0.9623659 2.58377778,0.226561303 1.78577778,0.122114464 C0.986740741,0.0187068966 0.253037037,0.585110153 0.148814815,1.38534962 L0.148814815,1.38534962 Z M1.54259259,1.9954023 C1.31133333,1.96526341 1.14696296,1.75169301 1.17703704,1.51941571 C1.20711111,1.28713841 1.42022222,1.12241379 1.652,1.15255268 C1.86511111,1.18061303 2.02118519,1.36404454 2.02118519,1.57449713 C2.02118519,1.59268439 2.02014815,1.61087165 2.01755556,1.62905891 C1.98748148,1.86133621 1.77437037,2.02554119 1.54259259,1.9954023 L1.54259259,1.9954023 Z" id="Shape"></path>
                                            </g>
                                        </g>
                                    </g>
                                    <path d="M8.32896296,0.696831897 C7.63103704,0.95716954 7.0757037,1.47472701 6.76614815,2.15285201 C5.99718519,3.84011015 6.74022222,5.83966954 8.4222963,6.61028975 C8.68259259,6.7292864 8.99059259,6.61496648 9.10985185,6.35358956 C9.22859259,6.09273228 9.11451852,5.78406849 8.8537037,5.6645522 C7.69118519,5.13192529 7.17785185,3.75021312 7.70933333,2.58466954 C7.90377778,2.15856801 8.25222222,1.8337955 8.69037037,1.67062979 C9.12903704,1.50694444 9.60503704,1.52409243 10.0302222,1.71947557 C10.680963,2.01774665 10.9682222,2.79096504 10.6705926,3.44310824 C10.5668889,3.67018918 10.3807407,3.84374761 10.1468889,3.93052682 C9.91303704,4.01782567 9.65948148,4.00847222 9.43288889,3.90454502 C9.17259259,3.78502874 8.86511111,3.90038793 8.74533333,4.16072557 C8.62607407,4.42158285 8.74118519,4.72972701 9.00096296,4.84976293 C9.47955556,5.06956897 10.0146667,5.0887955 10.5082963,4.90484435 C11.0019259,4.7208932 11.3944444,4.35506944 11.6137778,3.8754454 C12.1488889,2.70210728 11.6324444,1.31104167 10.4616296,0.774777299 C9.78444444,0.464034962 9.02688889,0.435974617 8.32896296,0.696831897 L8.32896296,0.696831897 Z" id="Shape"></path>
                                    <path d="M12.4911111,22.1224641 C11.9077778,22.5854598 11.5391111,23.249035 11.4535556,23.9905556 C11.368,24.7325958 11.5759259,25.4626844 12.0384444,26.0477945 C12.4252593,26.5372917 12.9795556,26.8464751 13.5986667,26.9187045 C14.2182963,26.9909339 14.8285926,26.8168558 15.3175556,26.4286877 C15.7302963,26.1007974 15.9911111,25.6315661 16.0517778,25.1072534 C16.1124444,24.5829406 15.9651852,24.066942 15.638,23.6533118 C15.4601481,23.4283094 15.134,23.390376 14.9094815,23.5691307 C14.684963,23.7473659 14.6476296,24.074217 14.8254815,24.2986997 C14.9805185,24.4951221 15.0505185,24.7398707 15.0214815,24.9877371 C14.9924444,25.2356034 14.8695556,25.4580077 14.6735556,25.6133788 C14.4018519,25.8295474 14.0627407,25.9261997 13.7184444,25.8856681 C13.3741481,25.8461758 13.0666667,25.6741762 12.8514815,25.401887 C12.5605926,25.0345043 12.4299259,24.5751461 12.4838519,24.1100718 C12.5377778,23.644478 12.769037,23.2277299 13.1356296,22.9367337 C13.620963,22.5511638 14.2265926,22.3776054 14.8415556,22.4493151 C15.457037,22.5205053 16.0082222,22.8276102 16.3934815,23.3139895 C16.5713333,23.5389919 16.8974815,23.5769253 17.122,23.3981705 C17.3465185,23.2199353 17.3838519,22.8930843 17.206,22.6686015 C16.6485926,21.9644947 15.8511111,21.5196863 14.9602963,21.4167984 C14.07,21.3133908 13.1926667,21.564375 12.4911111,22.1224641 L12.4911111,22.1224641 Z" id="Shape"></path>
                                    <g id="Group" transform="translate(40.101852, 10.407567)">
                                        <path d="M6.95266667,3.12479406 C4.79148148,6.84694684 3.72281481,10.8803616 4.02251852,14.190443 C4.04844444,14.4767625 4.30044444,14.687215 4.58562963,14.6612332 C4.87133333,14.6352514 5.08133333,14.3827083 5.05540741,14.0969085 C4.77540741,10.9957208 5.79377778,7.18730843 7.84918519,3.64754789 C7.99281481,3.39916188 11.5968706,0.931336294 11.3495373,0.786877482 C11.1018092,0.642188103 7.09681481,2.87692768 6.95266667,3.12479406 L6.95266667,3.12479406 Z" id="Shape"></path>
                                        <g transform="translate(0.861111, 13.495690)">
                                            <g transform="translate(3.629630, 0.519636)">
                                                <ellipse id="Oval" cx="1.75622222" cy="1.66439416" rx="0.942666667" ry="0.944698276"></ellipse>
                                                <path d="M0.308,1.47368774 L0.308,1.47472701 C0.203777778,2.27496648 0.768962963,3.01129071 1.56748148,3.11521791 C1.95325926,3.16666188 2.33644444,3.06273467 2.64651852,2.82474138 C2.95607407,2.58622845 3.15414815,2.24119013 3.20496296,1.85354167 C3.30866667,1.05278257 2.74348148,0.316458333 1.94548148,0.21253113 C1.14696296,0.108603927 0.412740741,0.675007184 0.308,1.47368774 L0.308,1.47368774 Z M1.81118519,1.24348898 C2.04244444,1.27362787 2.20681481,1.48719828 2.17622222,1.71947557 C2.16222222,1.83171695 2.10414815,1.93148707 2.01392593,2.0011183 C1.92422222,2.07022989 1.81325926,2.09984914 1.70177778,2.08529933 C1.48762963,2.05723898 1.33155556,1.87432711 1.33155556,1.66387452 C1.33155556,1.6462069 1.33311111,1.62801964 1.33518519,1.60931274 C1.36681481,1.37755508 1.57992593,1.21283046 1.81118519,1.24348898 L1.81118519,1.24348898 Z" id="Shape"></path>
                                            </g>
                                            <g>
                                                <ellipse id="Oval" cx="1.91437037" cy="1.87900383" rx="0.942148148" ry="0.94417864"></ellipse>
                                                <path d="M0.46562963,1.68933669 L0.46562963,1.68933669 C0.414814815,2.07750479 0.518518519,2.46203544 0.756518519,2.77277778 C0.994518519,3.08248084 1.3382963,3.2809818 1.72459259,3.33034722 C2.52311111,3.43479406 3.25785185,2.8683908 3.36259259,2.06815134 C3.46577778,1.26739224 2.90007407,0.531587644 2.10207407,0.427660441 C1.30459259,0.323733238 0.57037037,0.889097222 0.46562963,1.68933669 L0.46562963,1.68933669 Z M1.9682963,1.45809866 C2.20007407,1.48875718 2.36444444,1.70232759 2.33437037,1.93460489 C2.3042963,2.16584291 2.09066667,2.33056753 1.85837037,2.30042864 C1.74637037,2.28587883 1.64733333,2.22819923 1.57837037,2.1383022 C1.52081481,2.06295498 1.49022222,1.97357759 1.49022222,1.8800431 C1.49022222,1.86133621 1.49177778,1.84262931 1.49385185,1.82444205 C1.52392593,1.59216475 1.73755556,1.42847941 1.9682963,1.45809866 L1.9682963,1.45809866 Z" id="Shape"></path>
                                            </g>
                                            <g transform="translate(1.555556, 2.598180)">
                                                <ellipse id="Oval" cx="1.86407407" cy="1.83847222" rx="0.942148148" ry="0.94417864"></ellipse>
                                                <path d="M0.415851852,1.64828544 L0.415851852,1.64828544 C0.312148148,2.44956418 0.877333333,3.18588841 1.67585185,3.28981561 C2.47437037,3.39374282 3.20859259,2.82733956 3.3122963,2.02761973 C3.36311111,1.63997126 3.25940741,1.25596025 3.02140741,0.945737548 C2.78392593,0.635514847 2.43962963,0.437013889 2.05333333,0.386609195 C1.2542963,0.282162356 0.520074074,0.848045977 0.415851852,1.64828544 L0.415851852,1.64828544 Z M1.91851852,1.41704741 C2.03103704,1.43159722 2.13007407,1.48979646 2.19955556,1.57969349 C2.26851852,1.67011015 2.29859259,1.78131226 2.28407407,1.89355364 C2.25348148,2.12583094 2.04037037,2.29055556 1.80911111,2.26041667 C1.596,2.23235632 1.43992593,2.04892481 1.43992593,1.83795259 C1.43992593,1.82028496 1.44148148,1.8020977 1.44355556,1.78391044 C1.47414815,1.55111351 1.68725926,1.38690852 1.91851852,1.41704741 L1.91851852,1.41704741 Z" id="Shape"></path>
                                            </g>
                                        </g>
                                    </g>
                                </g>
                                <path d="M47.7960815,13.5086805 C47.7960815,13.5086805 53.2573495,9.59771018 56.4204373,8.87939635 C63.1339775,7.35480108 65.6533016,15.2847222 71.7051595,15.2847222 C74.6221172,15.2847222 84.4982344,8.01401945 87.9457626,8.87939631 C90.4261289,9.50200227 92.5350492,11.5128667 95.1704373,12.4861111 C98.9583011,13.8849627 102.920437,14.2083333 102.920437,14.2083333" id="Line" stroke="#000000" stroke-linecap="square"></path>
                            </g>
                        </g>
                    </g>
                </g>
            </g>
        </g>
    </g>
</svg>