<?xml version="1.0" encoding="UTF-8" standalone="no"?>
<svg width="18px" height="15px" viewBox="0 0 18 15" version="1.1" xmlns="http://www.w3.org/2000/svg" xmlns:xlink="http://www.w3.org/1999/xlink" xmlns:sketch="http://www.bohemiancoding.com/sketch/ns">
    <!-- Generator: Sketch 3.3.3 (12081) - http://www.bohemiancoding.com/sketch -->
    <title>Icons/Menu hamburger</title>
    <desc>Created with Sketch.</desc>
    <defs></defs>
    <g id="Design" stroke="none" stroke-width="1" fill="none" fill-rule="evenodd" sketch:type="MSPage">
        <g id="Mobile---Home" sketch:type="MSArtboardGroup" transform="translate(-330.000000, -17.000000)" fill="#F7F2F2">
            <g id="nav" sketch:type="MSLayerGroup">
                <g id="@Icons/Menu-hamburger" transform="translate(330.000000, 16.000000)" sketch:type="MSShapeGroup">
                    <path d="M17.1000204,13.1245672 C17.1000204,12.73453 16.7771684,12.4113563 16.3875195,12.4113563 L0.712500849,12.4113563 C0.322851947,12.4113563 0,12.73453 0,13.1245672 L0,14.5509888 C0,14.941026 0.322851947,15.2641997 0.712500849,15.2641997 L16.3875195,15.2641997 C16.7771684,15.2641997 17.1000204,14.941026 17.1000204,14.5509888 L17.1000204,13.1245672 Z M17.1000204,7.41888049 C17.1000204,7.02884332 16.7771684,6.70566966 16.3875195,6.70566966 L0.712500849,6.70566966 C0.322851947,6.70566966 0,7.02884332 0,7.41888049 L0,8.84530216 C0,9.23533933 0.322851947,9.55851299 0.712500849,9.55851299 L16.3875195,9.55851299 C16.7771684,9.55851299 17.1000204,9.23533933 17.1000204,8.84530216 L17.1000204,7.41888049 Z M17.1000204,1.71319383 C17.1000204,1.32315665 16.7771684,0.999982996 16.3875195,0.999982996 L0.712500849,0.999982996 C0.322851947,0.999982996 0,1.32315665 0,1.71319383 L0,3.13961549 C0,3.52965267 0.322851947,3.85282633 0.712500849,3.85282633 L16.3875195,3.85282633 C16.7771684,3.85282633 17.1000204,3.52965267 17.1000204,3.13961549 L17.1000204,1.71319383 Z" id="Icons/Menu-hamburger"></path>
                </g>
            </g>
        </g>
    </g>
</svg>