<?xml version="1.0" encoding="UTF-8" standalone="no"?>
<svg width="38px" height="38px" viewBox="0 0 38 38" version="1.1" xmlns="http://www.w3.org/2000/svg" xmlns:xlink="http://www.w3.org/1999/xlink" xmlns:sketch="http://www.bohemiancoding.com/sketch/ns">
    <!-- Generator: Sketch 3.3.3 (12081) - http://www.bohemiancoding.com/sketch -->
    <title>Icons/Facebook + Oval 155 Copy</title>
    <desc>Created with Sketch.</desc>
    <defs></defs>
    <g id="Design" stroke="none" stroke-width="1" fill="none" fill-rule="evenodd" sketch:type="MSPage">
        <g id="Mobile---Home" sketch:type="MSArtboardGroup" transform="translate(-313.000000, -301.000000)">
            <g id="social" sketch:type="MSLayerGroup" transform="translate(314.000000, 302.000000)">
                <g id="Icons/Facebook-+-Oval-155-Copy" sketch:type="MSShapeGroup">
                    <path d="M20.2269974,10.3778555 C20.8297055,10.3778555 21.6487704,10.4861417 22.3132948,10.6253668 C22.4678353,10.6563057 22.6378299,10.6253668 22.7769164,10.5325501 C22.9160029,10.4397333 23.0087273,10.2850388 23.0241813,10.1303442 L23.4414408,7.1138007 C23.4723489,6.83535052 23.3023543,6.54143089 23.0087273,6.46408362 C21.9269434,6.15469454 20.7524353,6 19.531565,6 C15.8380459,6 14.0453756,7.76351777 14.0453756,11.4143089 L14.0453756,13.0076627 L12.1599809,13.0076627 C11.8354457,13.0076627 11.5727268,13.2706434 11.5727268,13.595502 L11.5727268,16.6893928 C11.5727268,17.0297208 11.8354457,17.2927015 12.1599809,17.2927015 L14.0453756,17.2927015 L14.0453756,29.1732423 C14.0453756,29.4981008 14.3080945,29.7610815 14.6326296,29.7610815 L18.4961433,29.7610815 C18.8052244,29.7610815 19.0679433,29.4981008 19.0679433,29.1732423 L19.0679433,17.2927015 L22.1896624,17.2927015 C22.4987434,17.2927015 22.7460083,17.0451902 22.7769164,16.7358012 L22.9932732,13.6419103 C23.0087273,13.4717463 22.946911,13.3170518 22.8387327,13.1932962 C22.7305543,13.0695405 22.5760137,13.0076627 22.4214732,13.0076627 L19.0679433,13.0076627 L19.0679433,11.6463508 C19.0679433,10.6253668 19.1761217,10.3778555 20.2269974,10.3778555 L20.2269974,10.3778555 Z" id="Icons/Facebook" fill="#CF919A"></path>
                    <circle id="Oval-155-Copy" stroke="#AB803C" cx="18" cy="18" r="18"></circle>
                </g>
            </g>
        </g>
    </g>
</svg>